<svg xmlns="http://www.w3.org/2000/svg"><metadata>This is a custom SVG font generated by IcoMoon.<iconset id="et-line" name="et-line" href="http://www.elegantthemes.com" grid="16"/><author name="Elegant Themes" href="http://www.elegantthemes.com"/><license name="GPL 2.0" href="http://www.gnu.org/licenses/gpl-2.0.html"/></metadata><defs><font id="et-line" horiz-adv-x="512"><font-face units-per-em="512" ascent="480" descent="-32"/><glyph class="hidden" unicode="" d="M0,480L 512 -32L0 -32 z" horiz-adv-x="0"/><glyph unicode="" d="M 24-32l 224,0 c 4.416,0, 8,3.584, 8,8S 252.416-16, 248-16l-224,0 C 19.584-16, 16-12.416, 16-8l0,464 C 16,460.416, 19.584,464, 24,464l 336,0 C 364.416,464, 368,460.416, 368,456l0-80 C 368,371.584, 371.584,368, 376,368S 384,371.584, 384,376l0,80 C 384,469.232, 373.232,480, 360,480l-336,0 C 10.768,480,0,469.232,0,456l0-464 C0-21.232, 10.768-32, 24-32zM 288,312l0-320 c0-13.232, 10.768-24, 24-24l 176,0 c 13.232,0, 24,10.768, 24,24l0,320 C 512,325.232, 501.232,336, 488,336l-176,0 C 298.768,336, 288,325.232, 288,312z M 496,312l0-320 c0-4.416-3.584-8-8-8l-176,0 c-4.416,0-8,3.584-8,8l0,320 c0,4.416, 3.584,8, 8,8 l 176,0 C 492.416,320, 496,316.416, 496,312zM 176,32A16,16 180 1 1 208,32A16,16 180 1 1 176,32zM 384,32A16,16 180 1 1 416,32A16,16 180 1 1 384,32z" data-tags="mobile"/><glyph unicode="" d="M 56,64C 60.416,64, 64,67.584, 64,72L 64,448 c0,9.568, 6.432,16, 16,16l 512,0 c 9.12,0, 16-7.488, 16-17.424L 608,72 c0-4.416, 3.584-8, 8-8s 8,3.584, 8,8L 624,446.576 C 624,465.328, 609.952,480, 592,480L 80,480 C 61.456,480, 48,466.544, 48,448l0-376 C 48,67.584, 51.584,64, 56,64z M 104,432C 99.584,432, 96,428.416, 96,424l0-352 C 96,67.584, 99.584,64, 104,64l 464,0 c 4.416,0, 8,3.584, 8,8l0,352 C 576,428.416, 572.416,432, 568,432L 104,432 z M 560,80L 112,80 L 112,416 l 448,0 L 560,80 zM 664,32l-656,0 C 3.584,32,0,28.416,0,24l0-18.8 C0-13.968, 22.528-32, 40-32l 592,0 c 18.32,0, 40,21.68, 40,40l0,16 C 672,28.416, 668.416,32, 664,32z M 656,8c0-9.424-14.576-24-24-24l-592,0 C 29.904-16, 16-3.712, 16,5.2L 16,16 l 640,0 L 656,8 z" horiz-adv-x="672" data-tags="laptop"/><glyph unicode="" d="M 24,80L 304,80 l0-24 c0-4.416, 3.584-8, 8-8s 8,3.584, 8,8L 320,80 l 280,0 c 13.232,0, 24,10.768, 24,24l0,352 C 624,469.232, 613.232,480, 600,480l-576,0 C 10.768,480,0,469.232,0,456l0-352 C0,90.768, 10.768,80, 24,80z M 16,456C 16,460.416, 19.584,464, 24,464l 576,0 C 604.416,464, 608,460.416, 608,456l0-352 c0-4.416-3.584-8-8-8l-576,0 C 19.584,96, 16,99.584, 16,104L 16,456 zM 56,128l 512,0 c 4.416,0, 8,3.584, 8,8l0,288 C 576,428.416, 572.416,432, 568,432l-512,0 C 51.584,432, 48,428.416, 48,424l0-288 C 48,131.584, 51.584,128, 56,128z M 64,416l 496,0 l0-272 L 64,144 L 64,416 zM 224,32c-18.24,0-32-13.76-32-32l0-24 c0-4.416, 3.584-8, 8-8l 224,0 c 4.416,0, 8,3.584, 8,8l0,22.8 C 432,17.408, 417.952,32, 400,32L 224,32 z M 416-1.2L 416-16 L 208-16 l0,16 c0,9.424, 6.576,16, 16,16l 176,0 C 409.12,16, 416,8.608, 416-1.2z" horiz-adv-x="624" data-tags="desktop"/><glyph unicode="" d="M 24-32l 352,0 c 13.232,0, 24,10.768, 24,24l0,464 C 400,469.232, 389.232,480, 376,480l-352,0 C 10.768,480,0,469.232,0,456l0-464 C0-21.232, 10.768-32, 24-32z M 16,456C 16,460.416, 19.584,464, 24,464l 352,0 C 380.416,464, 384,460.416, 384,456l0-464 c0-4.416-3.584-8-8-8l-352,0 C 19.584-16, 16-12.416, 16-8L 16,456 zM 56,48l 288,0 c 4.416,0, 8,3.584, 8,8l0,368 C 352,428.416, 348.416,432, 344,432l-288,0 C 51.584,432, 48,428.416, 48,424l0-368 C 48,51.584, 51.584,48, 56,48z M 64,416l 272,0 l0-352 L 64,64 L 64,416 zM 192,16A16,16 180 1 1 224,16A16,16 180 1 1 192,16z" horiz-adv-x="400" data-tags="tablet"/><glyph unicode="" d="M 24-32l 256,0 c 13.232,0, 24,10.768, 24,24l0,464 C 304,469.232, 293.232,480, 280,480l-256,0 C 10.768,480,0,469.232,0,456l0-464 C0-21.232, 10.768-32, 24-32z M 16,456C 16,460.416, 19.584,464, 24,464l 256,0 C 284.416,464, 288,460.416, 288,456l0-464 c0-4.416-3.584-8-8-8l-256,0 C 19.584-16, 16-12.416, 16-8L 16,456 zM 40,48l 224,0 c 4.416,0, 8,3.584, 8,8l0,336 C 272,396.416, 268.416,400, 264,400l-224,0 C 35.584,400, 32,396.416, 32,392l0-336 C 32,51.584, 35.584,48, 40,48z M 48,384l 208,0 l0-320 L 48,64 L 48,384 zM 144,16A16,16 180 1 1 176,16A16,16 180 1 1 144,16zM 120,416l 64,0 C 188.416,416, 192,419.584, 192,424S 188.416,432, 184,432l-64,0 C 115.584,432, 112,428.416, 112,424S 115.584,416, 120,416z" horiz-adv-x="304" data-tags="phone"/><glyph unicode="" d="M 24-32l 336,0 c 13.232,0, 24,10.768, 24,24l0,336 c0,0.272-0.128,0.496-0.144,0.752 c-0.032,0.368-0.128,0.688-0.208,1.040c-0.272,1.136-0.736,2.16-1.44,3.056c-0.112,0.144-0.096,0.32-0.208,0.464l-128,144 c-0.048,0.048-0.112,0.048-0.16,0.096c-0.96,1.024-2.176,1.728-3.568,2.144c-0.304,0.096-0.576,0.128-0.896,0.176 C 248.912,479.808, 248.48,480, 248,480l-224,0 C 10.768,480,0,469.232,0,456l0-464 C0-21.232, 10.768-32, 24-32z M 256,450.96L 358.192,336L 264,336 C 260.48,336, 256,342.72, 256,348L 256,450.96 z M 16,456C 16,460.416, 19.6,464, 24,464L 240,464 l0-116 C 240,335.056, 250.48,320, 264,320L 368,320 l0-328 c0-4.416-3.6-8-8-8l-336,0 C 19.52-16, 16-12.48, 16-8L 16,456 zM 88,256l 208,0 c 4.416,0, 8,3.584, 8,8S 300.416,272, 296,272l-208,0 C 83.584,272, 80,268.416, 80,264S 83.584,256, 88,256zM 88,192l 208,0 c 4.416,0, 8,3.584, 8,8S 300.416,208, 296,208l-208,0 C 83.584,208, 80,204.416, 80,200S 83.584,192, 88,192zM 88,320l 96,0 c 4.416,0, 8,3.584, 8,8S 188.416,336, 184,336l-96,0 C 83.584,336, 80,332.416, 80,328S 83.584,320, 88,320zM 88,128l 208,0 c 4.416,0, 8,3.584, 8,8S 300.416,144, 296,144l-208,0 C 83.584,144, 80,140.416, 80,136S 83.584,128, 88,128zM 88,64l 208,0 c 4.416,0, 8,3.584, 8,8S 300.416,80, 296,80l-208,0 C 83.584,80, 80,76.416, 80,72S 83.584,64, 88,64z" horiz-adv-x="384" data-tags="document"/><glyph unicode="" d="M 24.192,32L 312,32 c 13.232,0, 24,10.768, 24,24l0,304 c0,0.368-0.16,0.688-0.208,1.040 c-0.048,0.352-0.112,0.656-0.208,0.992c-0.368,1.376-0.96,2.656-1.952,3.632l-111.984,111.984c-0.976,0.976-2.256,1.568-3.632,1.952 c-0.336,0.096-0.64,0.16-0.992,0.208C 216.688,479.84, 216.368,480, 216,480L 24.096,480 C 10.816,480,0,469.232,0,456l0-400 C0,42.768, 10.848,32, 24.192,32z M 224,452.688L 308.688,368L 232,368 C 227.6,368, 224,371.584, 224,376L 224,452.688 z M 16,456C 16,460.416, 19.632,464, 24.096,464L 208,464 l0-88 C 208,362.768, 218.768,352, 232,352L 320,352 l0-296 c0-4.416-3.6-8-8-8L 24.192,48 C 19.664,48, 16,51.584, 16,56L 16,456 zM 72,288l 192,0 c 4.416,0, 8,3.584, 8,8S 268.416,304, 264,304l-192,0 C 67.584,304, 64,300.416, 64,296S 67.584,288, 72,288zM 72,224l 192,0 c 4.416,0, 8,3.584, 8,8S 268.416,240, 264,240l-192,0 C 67.584,240, 64,236.416, 64,232S 67.584,224, 72,224zM 72,352l 80,0 C 156.416,352, 160,355.584, 160,360S 156.416,368, 152,368l-80,0 C 67.584,368, 64,364.416, 64,360S 67.584,352, 72,352zM 72,160l 192,0 c 4.416,0, 8,3.584, 8,8S 268.416,176, 264,176l-192,0 C 67.584,176, 64,172.416, 64,168S 67.584,160, 72,160zM 72,96l 192,0 c 4.416,0, 8,3.584, 8,8S 268.416,112, 264,112l-192,0 C 67.584,112, 64,108.416, 64,104S 67.584,96, 72,96zM 344,400L 416,400 l0-88 c0-13.232, 10.768-24, 24-24L 528,288 l0-296 c0-4.416-3.6-8-8-8L 232.192-16 C 227.664-16, 224-12.416, 224-8l0,16 c0,4.416-3.584,8-8,8S 208,12.416, 208,8l0-16 c0-13.232, 10.848-24, 24.192-24L 520-32 c 13.232,0, 24,10.768, 24,24l0,304 c0,0.368-0.16,0.688-0.208,1.040c-0.048,0.352-0.112,0.656-0.208,0.992 c-0.368,1.376-0.96,2.656-1.952,3.632l-111.984,111.984c-0.976,0.992-2.272,1.584-3.648,1.952c-0.336,0.096-0.624,0.144-0.976,0.192 C 424.688,415.84, 424.368,416, 424,416l-80,0 C 339.584,416, 336,412.416, 336,408S 339.584,400, 344,400z M 440,304c-4.4,0-8,3.584-8,8L 432,388.688 L 516.688,304 L 440,304 zM 376,224l 96,0 c 4.416,0, 8,3.584, 8,8S 476.416,240, 472,240l-96,0 c-4.416,0-8-3.584-8-8S 371.584,224, 376,224z M 376,160l 96,0 c 4.416,0, 8,3.584, 8,8S 476.416,176, 472,176l-96,0 c-4.416,0-8-3.584-8-8S 371.584,160, 376,160z M 376,96l 96,0 c 4.416,0, 8,3.584, 8,8S 476.416,112, 472,112l-96,0 c-4.416,0-8-3.584-8-8S 371.584,96, 376,96z M 376,32l 96,0 c 4.416,0, 8,3.584, 8,8S 476.416,48, 472,48l-96,0 c-4.416,0-8-3.584-8-8S 371.584,32, 376,32z" horiz-adv-x="544" data-tags="documents"/><glyph unicode="" d="M 24-32l 336,0 c 13.232,0, 24,10.768, 24,24L 384,112 c0,0.16-0.080,0.288-0.096,0.448 c 0.88,0.56, 1.792,1.088, 2.656,1.68l 127.776-127.776C 515.904-15.216, 517.952-16, 520-16s 4.096,0.784, 5.664,2.336 c 3.12,3.12, 3.12,8.192,0,11.312l-126.608,126.608C 419.28,143.248, 432,170.144, 432,200c0,36.752-19.216,69.056-48.096,87.552 C 383.92,287.712, 384,287.84, 384,288L 384,328 c0,0.272-0.128,0.496-0.144,0.752c-0.032,0.368-0.128,0.688-0.208,1.040 c-0.272,1.136-0.736,2.16-1.44,3.056c-0.112,0.144-0.096,0.32-0.208,0.464l-128,144c-0.048,0.048-0.112,0.048-0.16,0.096 c-0.96,1.040-2.192,1.728-3.568,2.144c-0.304,0.096-0.576,0.128-0.896,0.176C 248.912,479.808, 248.48,480, 248,480l-224,0 C 10.768,480,0,469.232,0,456l0-464 C0-21.232, 10.768-32, 24-32z M 416,200c0-48.528-39.488-88-88-88S 240,151.472, 240,200s 39.488,88, 88,88 S 416,248.528, 416,200z M 256,450.96L 358.192,336L 264,336 C 260.48,336, 256,342.72, 256,348L 256,450.96 z M 16,456C 16,460.416, 19.6,464, 24,464L 240,464 l0-116 C 240,335.056, 250.48,320, 264,320L 368,320 l0-24.016 C 355.68,301.136, 342.176,304, 328,304c-29.408,0-55.936-12.32-74.864-32L 88,272 C 83.584,272, 80,268.416, 80,264 S 83.584,256, 88,256l 152.512,0 c-9.040-14.064-14.752-30.416-16.096-48L 88,208 C 83.584,208, 80,204.416, 80,200S 83.584,192, 88,192l 136.4,0 c 1.344-17.584, 7.072-33.936, 16.096-48L 88,144 C 83.584,144, 80,140.416, 80,136S 83.584,128, 88,128l 164,0 c 0.336,0, 0.624,0.144, 0.96,0.192 C 271.904,108.4, 298.512,96, 328,96c 14.176,0, 27.68,2.864, 40,8.032L 368-8 c0-4.416-3.6-8-8-8l-336,0 C 19.52-16, 16-12.48, 16-8L 16,456 zM 88,320l 96,0 c 4.416,0, 8,3.584, 8,8S 188.416,336, 184,336l-96,0 C 83.584,336, 80,332.416, 80,328S 83.584,320, 88,320zM 88,64l 208,0 c 4.416,0, 8,3.584, 8,8S 300.416,80, 296,80l-208,0 C 83.584,80, 80,76.416, 80,72S 83.584,64, 88,64z" horiz-adv-x="528" data-tags="search"/><glyph unicode="" d="M 24-32l 400,0 c 13.904,0, 24,10.096, 24,24l0,448 C 448,453.904, 437.904,464, 424,464l-64,0 C 355.584,464, 352,460.416, 352,456 S 355.584,448, 360,448l 64,0 C 429.008,448, 432,445.008, 432,440l0-448 c0-5.008-2.992-8-8-8l-400,0 C 18.992-16, 16-13.008, 16-8l0,448 C 16,445.008, 18.992,448, 24,448l 64,0 C 92.416,448, 96,451.584, 96,456S 92.416,464, 88,464l-64,0 C 10.096,464,0,453.904,0,440l0-448 C0-21.904, 10.096-32, 24-32zM 88,400C 92.416,400, 96,403.584, 96,408S 92.416,416, 88,416l-32,0 C 51.584,416, 48,412.416, 48,408l0-384 C 48,19.584, 51.584,16, 56,16l 336,0 c 4.416,0, 8,3.584, 8,8l0,384 C 400,412.416, 396.416,416, 392,416l-32,0 C 355.584,416, 352,412.416, 352,408S 355.584,400, 360,400L 384,400 l0-368 L 64,32 L 64,400 L 88,400 zM 144,368l 160,0 c 19.44,0, 32,12.56, 32,32L 336,472 C 336,476.416, 332.416,480, 328,480l-208,0 C 115.584,480, 112,476.416, 112,472L 112,400 C 112,380.56, 124.56,368, 144,368z M 128,464l 192,0 l0-64 c0-10.624-5.392-16-16-16L 144,384 C 133.392,384, 128,389.376, 128,400L 128,464 zM 136,224l 176,0 c 4.416,0, 8,3.584, 8,8S 316.416,240, 312,240l-176,0 C 131.584,240, 128,236.416, 128,232S 131.584,224, 136,224zM 136,288l 176,0 c 4.416,0, 8,3.584, 8,8S 316.416,304, 312,304l-176,0 C 131.584,304, 128,300.416, 128,296S 131.584,288, 136,288zM 136,160l 176,0 c 4.416,0, 8,3.584, 8,8S 316.416,176, 312,176l-176,0 C 131.584,176, 128,172.416, 128,168S 131.584,160, 136,160zM 136,96l 176,0 c 4.416,0, 8,3.584, 8,8S 316.416,112, 312,112l-176,0 C 131.584,112, 128,108.416, 128,104S 131.584,96, 136,96z" horiz-adv-x="448" data-tags="clipboard"/><glyph unicode="" d="M 592,16c 19.136,0, 32,12.864, 32,32L 624,472 C 624,476.416, 620.416,480, 616,480S 608,476.416, 608,472L 608,48 c0-13.92-10.032-16-16-16 c-1.648,0-16,0.448-16,16L 576,472 C 576,476.416, 572.416,480, 568,480S 560,476.416, 560,472L 560,48 C 560,26.992, 576.096,16, 592,16zM 72,144l 160,0 c 4.416,0, 8,3.584, 8,8l0,144 c0,4.416-3.584,8-8,8l-160,0 C 67.584,304, 64,300.416, 64,296l0-144 C 64,147.584, 67.584,144, 72,144z M 80,288l 144,0 l0-128 L 80,160 L 80,288 zM 72,352l 384,0 C 460.416,352, 464,355.584, 464,360l0,64 C 464,428.416, 460.416,432, 456,432l-384,0 C 67.584,432, 64,428.416, 64,424l0-64 C 64,355.584, 67.584,352, 72,352z M 80,416l 368,0 l0-48 L 80,368 L 80,416 zM 456,304l-160,0 c-4.416,0-8-3.584-8-8s 3.584-8, 8-8l 160,0 c 4.416,0, 8,3.584, 8,8 S 460.416,304, 456,304zM 456,256l-160,0 c-4.416,0-8-3.584-8-8s 3.584-8, 8-8l 160,0 c 4.416,0, 8,3.584, 8,8 S 460.416,256, 456,256zM 456,208l-160,0 c-4.416,0-8-3.584-8-8s 3.584-8, 8-8l 160,0 c 4.416,0, 8,3.584, 8,8 S 460.416,208, 456,208zM 456,160l-160,0 c-4.416,0-8-3.584-8-8s 3.584-8, 8-8l 160,0 c 4.416,0, 8,3.584, 8,8 S 460.416,160, 456,160zM 456,112l-160,0 c-4.416,0-8-3.584-8-8s 3.584-8, 8-8l 160,0 c 4.416,0, 8,3.584, 8,8 S 460.416,112, 456,112zM 72,96l 160,0 c 4.416,0, 8,3.584, 8,8S 236.416,112, 232,112l-160,0 C 67.584,112, 64,108.416, 64,104S 67.584,96, 72,96zM 456,64l-160,0 c-4.416,0-8-3.584-8-8s 3.584-8, 8-8l 160,0 c 4.416,0, 8,3.584, 8,8 S 460.416,64, 456,64zM 72,48l 160,0 c 4.416,0, 8,3.584, 8,8S 236.416,64, 232,64l-160,0 C 67.584,64, 64,60.416, 64,56S 67.584,48, 72,48zM 80-31.152l 512,0 c 0.128,0, 0.256,0, 0.32,0c 0.112,0, 0.208,0.064, 0.32,0.064c 43.344,0.352, 78.528,35.664, 78.528,79.088 L 671.168,472 c0,3.952-3.2,7.152-7.152,7.152s-7.152-3.2-7.152-7.152L 656.864,48 c0-35.76-29.088-64.848-64.848-64.848S 527.152,12.24, 527.152,48L 527.152,472 c0,3.952-3.2,7.152-7.152,7.152l-512,0 c-3.952,0-7.152-3.2-7.152-7.152L 0.848,48 C 0.848,4.352, 36.352-31.152, 80-31.152z M 15.152,464.848l 497.68,0 L 512.832,48 c0-4.896, 0.592-9.648, 1.44-14.32c 0.176-0.928, 0.32-1.856, 0.528-2.768c 0.992-4.448, 2.304-8.752, 4.016-12.896 c 0.304-0.752, 0.672-1.456, 1.008-2.192c 1.728-3.872, 3.728-7.6, 6.048-11.12c 0.272-0.4, 0.48-0.832, 0.752-1.232 c 2.528-3.68, 5.408-7.088, 8.496-10.288c 0.672-0.688, 1.328-1.36, 2.032-2.032c 2.976-2.88, 6.112-5.616, 9.504-8L 80-16.848 c-35.744,0-64.848,29.088-64.848,64.848L 15.152,464.848 z" horiz-adv-x="672" data-tags="newspaper"/><glyph unicode="" d="M 376-32c 13.904,0, 24,10.096, 24,24l0,448 C 400,453.904, 389.904,464, 376,464l-320,0 C 42.096,464, 32,453.904, 32,440l0-18.672 c0-4.416, 3.584-8, 8-8S 48,416.912, 48,421.328L 48,440 C 48,445.008, 50.992,448, 56,448l 72.992,0 l0-464 L 56-16 C 50.992-16, 48-13.008, 48-8l0,14.672 c0,4.416-3.584,8-8,8S 32,11.088, 32,6.672L 32-8 C 32-21.904, 42.096-32, 56-32L 376-32 z M 144,448l 232,0 C 381.008,448, 384,445.008, 384,440l0-448 c0-5.008-2.992-8-8-8L 144-16 L 144,448 zM 432,8l0,416 C 432,428.416, 428.416,432, 424,432S 416,428.416, 416,424l0-416 c0-4.416, 3.584-8, 8-8S 432,3.584, 432,8zM 8,304l 64,0 C 76.416,304, 80,307.584, 80,312S 76.416,320, 72,320l-64,0 C 3.584,320,0,316.416,0,312S 3.584,304, 8,304zM 8,368l 64,0 C 76.416,368, 80,371.584, 80,376S 76.416,384, 72,384l-64,0 C 3.584,384,0,380.416,0,376S 3.584,368, 8,368zM 8,240l 64,0 C 76.416,240, 80,243.584, 80,248S 76.416,256, 72,256l-64,0 C 3.584,256,0,252.416,0,248S 3.584,240, 8,240zM 8,112l 64,0 C 76.416,112, 80,115.584, 80,120S 76.416,128, 72,128l-64,0 C 3.584,128,0,124.416,0,120S 3.584,112, 8,112zM 8,176l 64,0 C 76.416,176, 80,179.584, 80,184S 76.416,192, 72,192l-64,0 C 3.584,192,0,188.416,0,184S 3.584,176, 8,176zM 8,48l 64,0 C 76.416,48, 80,51.584, 80,56S 76.416,64, 72,64l-64,0 C 3.584,64,0,60.416,0,56S 3.584,48, 8,48z" horiz-adv-x="432" data-tags="notebook"/><glyph unicode="" d="M 600,464l-256,0 c-6.352,0-11.84-2.176-16-5.792C 323.84,461.824, 318.352,464, 312,464l-256,0 C 42.096,464, 32,453.904, 32,440l0-448 C 32-21.904, 42.096-32, 56-32l 256,0 c 6.352,0, 11.84,2.176, 16,5.792c 4.16-3.616, 9.648-5.792, 16-5.792l 256,0 c 13.904,0, 24,10.096, 24,24l0,448 C 624,453.904, 613.904,464, 600,464z M 312-16l-256,0 C 50.992-16, 48-13.008, 48-8l0,448 C 48,445.008, 50.992,448, 56,448l 256,0 C 317.008,448, 320,445.008, 320,440l0-18.672 l0-414.672 l0-12.672 L 320-8 C 320-13.008, 317.008-16, 312-16z M 608-8c0-5.008-2.992-8-8-8l-256,0 c-5.008,0-8,2.992-8,8l0,2 l0,12.672 L 336,421.328 L 336,440 C 336,445.008, 338.992,448, 344,448l 256,0 C 605.008,448, 608,445.008, 608,440L 608-8 zM 648,432C 643.584,432, 640,428.416, 640,424l0-416 c0-4.416, 3.584-8, 8-8s 8,3.584, 8,8l0,416 C 656,428.416, 652.416,432, 648,432zM 8,0C 12.416,0, 16,3.584, 16,8l0,416 C 16,428.416, 12.416,432, 8,432S0,428.416,0,424l0-416 C0,3.584, 3.584,0, 8,0zM 280,320l-192,0 C 83.584,320, 80,316.416, 80,312S 83.584,304, 88,304l 192,0 c 4.416,0, 8,3.584, 8,8S 284.416,320, 280,320zM 280,256l-192,0 C 83.584,256, 80,252.416, 80,248S 83.584,240, 88,240l 192,0 c 4.416,0, 8,3.584, 8,8S 284.416,256, 280,256zM 280,384l-192,0 C 83.584,384, 80,380.416, 80,376S 83.584,368, 88,368l 192,0 C 284.416,368, 288,371.584, 288,376S 284.416,384, 280,384zM 280,192l-192,0 C 83.584,192, 80,188.416, 80,184S 83.584,176, 88,176l 192,0 c 4.416,0, 8,3.584, 8,8S 284.416,192, 280,192zM 280,128l-192,0 C 83.584,128, 80,124.416, 80,120S 83.584,112, 88,112l 192,0 c 4.416,0, 8,3.584, 8,8S 284.416,128, 280,128zM 280,64l-192,0 C 83.584,64, 80,60.416, 80,56S 83.584,48, 88,48l 192,0 c 4.416,0, 8,3.584, 8,8S 284.416,64, 280,64zM 568,320l-192,0 c-4.416,0-8-3.584-8-8s 3.584-8, 8-8l 192,0 c 4.416,0, 8,3.584, 8,8 S 572.416,320, 568,320zM 568,256l-192,0 c-4.416,0-8-3.584-8-8s 3.584-8, 8-8l 192,0 c 4.416,0, 8,3.584, 8,8 S 572.416,256, 568,256zM 568,384l-192,0 C 371.584,384, 368,380.416, 368,376S 371.584,368, 376,368l 192,0 C 572.416,368, 576,371.584, 576,376S 572.416,384, 568,384zM 568,192l-192,0 c-4.416,0-8-3.584-8-8s 3.584-8, 8-8l 192,0 c 4.416,0, 8,3.584, 8,8 S 572.416,192, 568,192zM 568,128l-192,0 c-4.416,0-8-3.584-8-8s 3.584-8, 8-8l 192,0 c 4.416,0, 8,3.584, 8,8 S 572.416,128, 568,128zM 568,64l-192,0 c-4.416,0-8-3.584-8-8s 3.584-8, 8-8l 192,0 c 4.416,0, 8,3.584, 8,8 S 572.416,64, 568,64z" horiz-adv-x="672" data-tags="book-open"/><glyph unicode="" d="M 664,320c-4.416,0-8-3.584-8-8l0-320 c0-4.416-3.584-8-8-8l-624,0 C 19.584-16, 16-12.416, 16-8l0,320 C 16,316.416, 12.416,320, 8,320S0,316.416,0,312l0-320 C0-21.232, 10.768-32, 24-32l 624,0 c 13.232,0, 24,10.768, 24,24l0,320 C 672,316.416, 668.416,320, 664,320zM 648,480l-624,0 C 10.768,480,0,469.232,0,456l0-96 C0,355.584, 3.584,352, 8,352l 656,0 C 668.416,352, 672,355.584, 672,360l0,96 C 672,469.232, 661.232,480, 648,480z M 656,368L 16,368 L 16,456 C 16,460.416, 19.584,464, 24,464l 624,0 C 652.416,464, 656,460.416, 656,456L 656,368 zM 280,32c 4.416,0, 8,3.584, 8,8l0,256 c0,4.416-3.584,8-8,8l-208,0 C 67.584,304, 64,300.416, 64,296l0-256 C 64,35.584, 67.584,32, 72,32L 280,32 z M 80,288l 192,0 l0-240 L 80,48 L 80,288 zM 360,240l 240,0 c 4.416,0, 8,3.584, 8,8S 604.416,256, 600,256l-240,0 c-4.416,0-8-3.584-8-8 S 355.584,240, 360,240zM 360,160l 240,0 c 4.416,0, 8,3.584, 8,8S 604.416,176, 600,176l-240,0 c-4.416,0-8-3.584-8-8 S 355.584,160, 360,160zM 360,80l 240,0 c 4.416,0, 8,3.584, 8,8S 604.416,96, 600,96l-240,0 c-4.416,0-8-3.584-8-8 S 355.584,80, 360,80zM 48,416A16,16 180 1 1 80,416A16,16 180 1 1 48,416zM 112,416A16,16 180 1 1 144,416A16,16 180 1 1 112,416zM 176,416A16,16 180 1 1 208,416A16,16 180 1 1 176,416z" horiz-adv-x="672" data-tags="browser"/><glyph unicode="" d="M 544-8l0,304 c0,4.416-3.584,8-8,8S 528,300.416, 528,296l0-304 c0-4.416-3.584-8-8-8l-496,0 C 19.584-16, 16-12.416, 16-8l0,304 C 16,300.416, 12.416,304, 8,304S0,300.416,0,296l0-304 C0-21.232, 10.768-32, 24-32l 496,0 C 533.232-32, 544-21.232, 544-8zM 72,112C 67.584,112, 64,108.416, 64,104S 67.584,96, 72,96L 96,96 l0-56 C 96,35.584, 99.584,32, 104,32S 112,35.584, 112,40L 112,96 l 96,0 l0-56 c0-4.416, 3.584-8, 8-8s 8,3.584, 8,8L 224,96 l 96,0 l0-56 c0-4.416, 3.584-8, 8-8s 8,3.584, 8,8L 336,96 l 96,0 l0-56 c0-4.416, 3.584-8, 8-8s 8,3.584, 8,8L 448,96 l 24,0 c 4.416,0, 8,3.584, 8,8S 476.416,112, 472,112L 448,112 l0,80 l 24,0 c 4.416,0, 8,3.584, 8,8S 476.416,208, 472,208L 448,208 l0,72 c0,4.416-3.584,8-8,8S 432,284.416, 432,280L 432,208 l-96,0 l0,72 c0,4.416-3.584,8-8,8S 320,284.416, 320,280L 320,208 l-96,0 l0,72 c0,4.416-3.584,8-8,8S 208,284.416, 208,280L 208,208 L 112,208 l0,72 C 112,284.416, 108.416,288, 104,288S 96,284.416, 96,280L 96,208 L 72,208 C 67.584,208, 64,204.416, 64,200S 67.584,192, 72,192L 96,192 l0-80 L 72,112 z M 432,192l0-80 l-96,0 l0,80 L 432,192 z M 320,192l0-80 l-96,0 l0,80 L 320,192 z M 112,192l 96,0 l0-80 L 112,112 L 112,192 zM 456,432l 68,0 C 525.392,432, 528,432, 528,424L 528,352 L 16,352 L 16,424 C 16,428.416, 19.584,432, 24,432l 64,0 C 92.416,432, 96,435.584, 96,440S 92.416,448, 88,448 l-64,0 C 10.768,448,0,437.232,0,424l0-80 C0,339.584, 3.584,336, 8,336l 528,0 C 540.416,336, 544,339.584, 544,344l0,80 C 544,441.696, 533.664,448, 524,448L 456,448 C 451.584,448, 448,444.416, 448,440S 451.584,432, 456,432zM 360,432C 364.416,432, 368,435.584, 368,440S 364.416,448, 360,448l-176,0 C 179.584,448, 176,444.416, 176,440S 179.584,432, 184,432L 360,432 zM 144,408l0,64 C 144,476.416, 140.416,480, 136,480S 128,476.416, 128,472l0-64 C 128,403.584, 131.584,400, 136,400S 144,403.584, 144,408zM 408,400C 412.416,400, 416,403.584, 416,408l0,64 C 416,476.416, 412.416,480, 408,480S 400,476.416, 400,472l0-64 C 400,403.584, 403.584,400, 408,400 z" horiz-adv-x="544" data-tags="calendar"/><glyph unicode="" d="M 8,432C 3.584,432,0,428.416,0,424l0-272 C0,138.768, 10.768,128, 24,128l 448,0 c 13.232,0, 24,10.768, 24,24l0,272 C 496,428.416, 492.416,432, 488,432S 480,428.416, 480,424l0-272 c0-4.416-3.584-8-8-8l-448,0 C 19.584,144, 16,147.584, 16,152l0,272 C 16,428.416, 12.416,432, 8,432z M 520,480l-544,0 C-28.416,480-32,476.416-32,472S-28.416,464-24,464l 544,0 C 524.416,464, 528,467.584, 528,472S 524.416,480, 520,480zM 189.664,349.664c-2.928,2.928-7.6,3.136-10.784,0.496l-96-80c-3.392-2.832-3.856-7.872-1.024-11.28 c 2.832-3.392, 7.856-3.856, 11.28-1.024l 90.384,75.328l 90.832-90.832C 275.904,240.784, 277.952,240, 280,240s 4.096,0.784, 5.664,2.336L 400,356.688 L 400,296 c0-4.416, 3.584-8, 8-8s 8,3.584, 8,8l0,80 c0,1.040-0.208,2.080-0.608,3.056c-0.816,1.952-2.368,3.52-4.336,4.336 C 410.080,383.792, 409.040,384, 408,384l-80,0 C 323.584,384, 320,380.416, 320,376S 323.584,368, 328,368l 60.688,0 L 280,259.312L 189.664,349.664zM 128.912-27.712c 2.048-3.92, 6.88-5.424, 10.8-3.376l 108.288,56.72l 108.288-56.72 C 357.472-31.712, 358.736-32, 360-32c 2.88,0, 5.664,1.568, 7.088,4.288c 2.048,3.92, 0.544,8.752-3.376,10.8l-110.288,57.76 C 254.992,42.304, 256,44.352, 256,46.672L 256,88 c0,4.416-3.584,8-8,8S 240,92.416, 240,88l0-41.328 c0-2.304, 1.008-4.352, 2.576-5.808 l-110.288-57.76C 128.368-18.96, 126.864-23.792, 128.912-27.712z" horiz-adv-x="496" data-tags="presentation"/><glyph unicode="" d="M 24-32l 464,0 c 13.232,0, 24,10.768, 24,24l0,464 C 512,469.232, 501.232,480, 488,480l-464,0 C 10.768,480,0,469.232,0,456l0-464 C0-21.232, 10.768-32, 24-32z M 16,456C 16,460.416, 19.6,464, 24,464l 464,0 C 492.4,464, 496,460.416, 496,456l0-464 c0-4.416-3.6-8-8-8l-464,0 C 19.6-16, 16-12.416, 16-8L 16,456 zM 328,280c 17.648,0, 32,14.352, 32,32s-14.352,32-32,32s-32-14.352-32-32S 310.352,280, 328,280z M 328,328 c 8.832,0, 16-7.184, 16-16s-7.168-16-16-16s-16,7.184-16,16S 319.168,328, 328,328zM 72,80l 368,0 c 4.416,0, 8,3.584, 8,8l0,320 C 448,412.416, 444.416,416, 440,416l-368,0 C 67.584,416, 64,412.416, 64,408l0-320 C 64,83.584, 67.584,80, 72,80z M 80,96l0,90.208 c 0.352,0.256, 0.752,0.4, 1.072,0.72l 81.856,81.856c 4.16,4.16, 11.392,4.144, 15.552,0 l 120.336-120.336c 1.568-1.568, 3.616-2.336, 5.664-2.336c 1.984,0, 3.968,0.736, 5.52,2.208l 61.856,58.752c 2.080,2.080, 4.848,3.232, 7.776,3.232 c 2.944,0, 5.68-1.152, 7.536-2.992l 44.832-48.832c0,0, 0.016,0, 0.016-0.016L 432.016,96 L 80,96 z M 432,400l0-217.888 l-33.296,36.256 c-5.072,5.104-11.856,7.92-19.056,7.92c-0.016,0-0.016,0-0.016,0c-7.216,0-14-2.816-18.96-7.776l-56.064-53.248l-114.816,114.832 c-10.224,10.208-27.984,10.192-38.176,0L 80,208.464L 80,400 L 432,400 z" data-tags="picture"/><glyph unicode="" d="M 24,32l 416,0 c 13.232,0, 24,10.768, 24,24l0,400 C 464,469.232, 453.232,480, 440,480l-416,0 C 10.768,480,0,469.232,0,456l0-400 C0,42.768, 10.768,32, 24,32z M 16,456C 16,460.416, 19.6,464, 24,464l 416,0 C 444.4,464, 448,460.416, 448,456l0-400 c0-4.416-3.6-8-8-8l-416,0 C 19.6,48, 16,51.584, 16,56L 16,456 zM 288,304c 17.648,0, 32,14.352, 32,32s-14.352,32-32,32s-32-14.352-32-32S 270.352,304, 288,304z M 288,352c 8.832,0, 16-7.184, 16-16 s-7.168-16-16-16s-16,7.184-16,16S 279.168,352, 288,352zM 56,112l 352,0 c 4.416,0, 8,3.584, 8,8l0,304 C 416,428.416, 412.416,432, 408,432l-352,0 C 51.584,432, 48,428.416, 48,424l0-304 C 48,115.584, 51.584,112, 56,112z M 64,128l0,74.208 c 0.352,0.256, 0.752,0.4, 1.072,0.72l 81.856,81.856c 4.16,4.16, 11.392,4.144, 15.552,0 l 120.336-120.336c 1.568-1.568, 3.616-2.336, 5.664-2.336c 1.984,0, 3.968,0.736, 5.52,2.208l 61.856,58.752c 2.080,2.080, 4.848,3.232, 7.776,3.232 c 2.944,0, 5.68-1.152, 7.424-2.848L 400,190.512L 400,128 L 64,128 z M 400,416l0-201.296 l-17.296,19.648c-5.072,5.104-11.856,7.92-19.056,7.92 c-0.016,0-0.016,0-0.016,0c-7.216,0-14-2.816-18.96-7.776l-56.064-53.248l-114.816,114.832c-10.224,10.208-27.984,10.192-38.176,0L 64,224.464 L 64,416 L 400,416 zM 72,14.672c-4.416,0-8-3.584-8-8L 64-8 C 64-21.232, 74.768-32, 88-32l 416,0 c 13.232,0, 24,10.768, 24,24l0,416 C 528,421.232, 517.232,432, 504,432l-14.672,0 c-4.416,0-8-3.584-8-8s 3.584-8, 8-8L 504,416 C 508.4,416, 512,412.416, 512,408l0-416 c0-4.416-3.6-8-8-8l-416,0 C 83.6-16, 80-12.416, 80-8l0,14.672 C 80,11.088, 76.416,14.672, 72,14.672z" horiz-adv-x="528" data-tags="pictures"/><glyph unicode="" d="M 120,480l-96,0 C 10.096,480,0,469.904,0,456l0-464 C0-21.904, 10.096-32, 24-32l 96,0 l 352,0 l 96,0 c 13.904,0, 24,10.096, 24,24l0,464 C 592,469.904, 581.904,480, 568,480l-96,0 L 120,480 z M 16-8l0,464 C 16,461.008, 18.992,464, 24,464L 112,464 l0-480 L 24-16 C 18.992-16, 16-13.008, 16-8z M 128-16L 128,464 l 336,0 l0-480 L 128-16 z M 576,456l0-464 c0-5.008-2.992-8-8-8L 480-16 L 480,464 l 88,0 C 573.008,464, 576,461.008, 576,456zM 236.432,318.656c-2.448,1.632-5.616,1.792-8.224,0.4C 225.632,317.664, 224,314.96, 224,312l0-192 c0-2.96, 1.632-5.664, 4.224-7.056C 229.408,112.32, 230.704,112, 232,112c 1.552,0, 3.088,0.448, 4.432,1.344l 144,96 C 382.656,210.832, 384,213.328, 384,216s-1.344,5.168-3.568,6.656L 236.432,318.656z M 240,134.944L 240,297.056 l 121.584-81.056L 240,134.944zM 80,352L 48,352 C 43.584,352, 40,348.416, 40,344S 43.584,336, 48,336l 32,0 c 4.416,0, 8,3.584, 8,8S 84.416,352, 80,352zM 48,400l 32,0 c 4.416,0, 8,3.584, 8,8S 84.416,416, 80,416L 48,416 C 43.584,416, 40,412.416, 40,408S 43.584,400, 48,400zM 80,288L 48,288 c-4.416,0-8-3.584-8-8S 43.584,272, 48,272l 32,0 c 4.416,0, 8,3.584, 8,8S 84.416,288, 80,288zM 80,224L 48,224 c-4.416,0-8-3.584-8-8S 43.584,208, 48,208l 32,0 c 4.416,0, 8,3.584, 8,8S 84.416,224, 80,224zM 80,160L 48,160 c-4.416,0-8-3.584-8-8S 43.584,144, 48,144l 32,0 c 4.416,0, 8,3.584, 8,8S 84.416,160, 80,160zM 80,96L 48,96 c-4.416,0-8-3.584-8-8S 43.584,80, 48,80l 32,0 c 4.416,0, 8,3.584, 8,8S 84.416,96, 80,96zM 80,32L 48,32 c-4.416,0-8-3.584-8-8S 43.584,16, 48,16l 32,0 c 4.416,0, 8,3.584, 8,8S 84.416,32, 80,32zM 512,336l 32,0 c 4.416,0, 8,3.584, 8,8S 548.416,352, 544,352l-32,0 c-4.416,0-8-3.584-8-8S 507.584,336, 512,336zM 512,400l 32,0 c 4.416,0, 8,3.584, 8,8S 548.416,416, 544,416l-32,0 c-4.416,0-8-3.584-8-8S 507.584,400, 512,400zM 512,272l 32,0 c 4.416,0, 8,3.584, 8,8S 548.416,288, 544,288l-32,0 c-4.416,0-8-3.584-8-8S 507.584,272, 512,272zM 512,208l 32,0 c 4.416,0, 8,3.584, 8,8S 548.416,224, 544,224l-32,0 c-4.416,0-8-3.584-8-8S 507.584,208, 512,208zM 512,144l 32,0 c 4.416,0, 8,3.584, 8,8S 548.416,160, 544,160l-32,0 c-4.416,0-8-3.584-8-8S 507.584,144, 512,144zM 512,80l 32,0 c 4.416,0, 8,3.584, 8,8S 548.416,96, 544,96l-32,0 c-4.416,0-8-3.584-8-8S 507.584,80, 512,80zM 544,32l-32,0 c-4.416,0-8-3.584-8-8S 507.584,16, 512,16l 32,0 c 4.416,0, 8,3.584, 8,8S 548.416,32, 544,32z" horiz-adv-x="592" data-tags="video"/><glyph unicode="" d="M 632,384L 512,384 c-30.832,0-31.968,28.752-32,32L 480,432 c0,20.128-22.24,48-64,48l-159.504,0 c-46.96,0-64-28.704-64-48l0-15.904 C 192.48,414.784, 191.728,384, 160,384L 40,384 C 17.936,384,0,366.048,0,344l0-288 C0,33.952, 17.936,16, 40,16l 96,0 C 140.416,16, 144,19.584, 144,24S 140.416,32, 136,32l-96,0 C 26.768,32, 16,42.768, 16,56L 16,256 l 128,0 c-10.304-24.64-16-51.664-16-80c0-114.688, 93.312-208, 208-208s 208,93.312, 208,208c0,28.336-5.744,55.36-16.048,80L 656,256 l0-200 c0-13.232-10.768-24-24-24l-112,0 c-4.416,0-8-3.584-8-8s 3.584-8, 8-8l 112,0 c 22.064,0, 40,17.952, 40,40l0,288 C 672,366.048, 654.064,384, 632,384z M 336-16c-105.872,0-192,86.128-192,192S 230.128,368, 336,368s 192-86.128, 192-192S 441.872-16, 336-16z M 524,272 c-1.184,0-2.288-0.288-3.296-0.752C 486.080,338.112, 416.352,384, 336,384s-150.080-45.888-184.704-112.752C 150.288,271.712, 149.184,272, 148,272L 16,272 L 16,344 C 16,357.232, 26.768,368, 40,368L 160,368 c 37.888,0, 48.304,31.328, 48.496,48L 208.496,432 c0,12.864, 12.784,32, 48,32L 416,464 c 33.504,0, 48-21.184, 48-32l0-16 c0-16.608, 10.032-48, 48-48l 120,0 C 645.232,368, 656,357.232, 656,344L 656,272 L 524,272 zM 152,400C 156.416,400, 160,403.584, 160,408l0,16 C 160,437.232, 149.232,448, 136,448l-64,0 C 58.768,448, 48,437.232, 48,424l0-16 C 48,403.584, 51.584,400, 56,400S 64,403.584, 64,408l0,16 C 64,428.416, 67.6,432, 72,432l 64,0 C 140.4,432, 144,428.416, 144,424l0-16 C 144,403.584, 147.584,400, 152,400zM 336,320c-79.408,0-144-64.608-144-144s 64.592-144, 144-144s 144,64.608, 144,144S 415.408,320, 336,320z M 336,48c-70.576,0-128,57.424-128,128 s 57.424,128, 128,128s 128-57.424, 128-128S 406.576,48, 336,48z" horiz-adv-x="672" data-tags="camera"/><glyph unicode="" d="M 648,320L 608,320 L 608,376 C 608,389.232, 597.232,400, 584,400l-32,0 C 547.584,400, 544,396.416, 544,392S 547.584,384, 552,384l 32,0 C 588.4,384, 592,380.416, 592,376L 592,320 l-64,0 L 528,472 C 528,476.416, 524.416,480, 520,480l-368,0 C 147.584,480, 144,476.416, 144,472L 144,320 L 80,320 L 80,376 C 80,380.416, 83.6,384, 88,384l 32,0 C 124.416,384, 128,387.584, 128,392S 124.416,400, 120,400l-32,0 C 74.768,400, 64,389.232, 64,376L 64,320 L 24,320 C 10.768,320,0,309.232,0,296l0-224 C0,58.768, 10.768,48, 24,48l 96,0 C 124.416,48, 128,51.584, 128,56S 124.416,64, 120,64l-96,0 C 19.6,64, 16,67.584, 16,72L 16,128 l 640,0 l0-56 c0-4.416-3.6-8-8-8l-96,0 c-4.416,0-8-3.584-8-8s 3.584-8, 8-8l 96,0 c 13.232,0, 24,10.768, 24,24l0,224 C 672,309.232, 661.232,320, 648,320z M 160,464l 352,0 l0-144 L 160,320 L 160,464 z M 16,144l0,152 C 16,300.416, 19.6,304, 24,304l 624,0 c 4.4,0, 8-3.584, 8-8L 656,144 L 16,144 zM 520,112c-4.416,0-8-3.584-8-8L 512-16 L 160-16 l0,120 c0,4.416-3.584,8-8,8S 144,108.416, 144,104l0-48 l0-80 C 144-28.416, 147.584-32, 152-32l 368,0 c 4.416,0, 8,3.584, 8,8l0,80 l0,48 C 528,108.416, 524.416,112, 520,112zM 592,192A16,16 180 1 1 624,192A16,16 180 1 1 592,192zM 528,192A16,16 180 1 1 560,192A16,16 180 1 1 528,192z" horiz-adv-x="672" data-tags="printer"/><glyph unicode="" d="M 664,208c-4.416,0-8-3.584-8-8l0-208 c0-4.416-3.584-8-8-8l-624,0 C 19.584-16, 16-12.416, 16-8l0,208 C 16,204.416, 12.416,208, 8,208S0,204.416,0,200l0-208 C0-21.232, 10.768-32, 24-32l 624,0 c 13.232,0, 24,10.768, 24,24l0,208 C 672,204.416, 668.416,208, 664,208zM 648,368l-624,0 C 10.768,368,0,357.232,0,344l0-96 C0,243.584, 3.584,240, 8,240L 224,240 l0-56 c0-13.232, 10.768-24, 24-24l 176,0 c 13.232,0, 24,10.768, 24,24L 448,240 l 216,0 c 4.416,0, 8,3.584, 8,8l0,96 C 672,357.232, 661.232,368, 648,368z M 432,184c0-4.416-3.584-8-8-8 l-176,0 c-4.416,0-8,3.584-8,8L 240,240 l 192,0 L 432,184 z M 656,256L 16,256 L 16,344 C 16,348.416, 19.584,352, 24,352l 624,0 C 652.416,352, 656,348.416, 656,344L 656,256 zM 248,480C 234.768,480, 224,469.232, 224,456l0-64 C 224,387.584, 227.584,384, 232,384S 240,387.584, 240,392l0,64 C 240,460.416, 243.584,464, 248,464 l 176,0 C 428.416,464, 432,460.416, 432,456l0-64 C 432,387.584, 435.584,384, 440,384S 448,387.584, 448,392l0,64 C 448,469.232, 437.232,480, 424,480L 248,480 z" horiz-adv-x="672" data-tags="toolbox"/><glyph unicode="" d="M 600,192c-4.416,0-8-3.584-8-8l0-192 c0-4.416-3.584-8-8-8l-560,0 C 19.584-16, 16-12.416, 16-8l0,192 C 16,188.416, 12.416,192, 8,192S0,188.416,0,184l0-192 C0-21.232, 10.768-32, 24-32l 560,0 c 13.232,0, 24,10.768, 24,24l0,192 C 608,188.416, 604.416,192, 600,192zM 408,400C 412.416,400, 416,403.584, 416,408l0,48 C 416,469.232, 405.232,480, 392,480l-176,0 C 202.768,480, 192,469.232, 192,456l0-48 C 192,403.584, 195.584,400, 200,400S 208,403.584, 208,408l0,48 C 208,460.416, 211.584,464, 216,464l 176,0 C 396.416,464, 400,460.416, 400,456l0-48 C 400,403.584, 403.584,400, 408,400zM 584,368l-560,0 C 10.768,368,0,357.232,0,344l0-79.328 c0-44.448, 151.296-104, 306-104c 152.688,0, 302,59.552, 302,104 L 608,344 C 608,357.232, 597.232,368, 584,368z M 592,264.672c0-28.224-135.312-88-286-88C 153.2,176.672, 16,236.432, 16,264.672L 16,344 C 16,348.416, 19.584,352, 24,352l 560,0 C 588.416,352, 592,348.416, 592,344L 592,264.672 zM 306,112c 15.088,0, 30.768,0.624, 46.624,1.856c 4.4,0.336, 7.696,4.192, 7.344,8.608 c-0.336,4.4-4.032,7.776-8.608,7.344c-32.224-2.512-62.544-2.4-94.704,0.32c-4.224,0.432-8.272-2.896-8.64-7.296 c-0.368-4.4, 2.896-8.272, 7.296-8.64C 272.528,112.736, 289.584,112, 306,112z" horiz-adv-x="608" data-tags="briefcase"/><glyph unicode="" d="M 520.144,360c 4.416,0, 8,3.584, 8,8L 528.144,394.64 c0,14.448-11.76,26.208-26.208,26.208l-42.992,0 l-9.808,28.944 c-1.376,4.080-5.76,6.352-9.904,5.088L 206.384,384.096c-4.224-1.296-6.608-5.76-5.328-9.984c 1.056-3.456, 4.224-5.664, 7.664-5.664 c 0.768,0, 1.552,0.112, 2.336,0.336L 436.48,437.328l 21.488-63.44c 1.424-4.192, 6-6.464, 10.144-5.008 c 4.192,1.408, 6.432,5.968, 5.008,10.144l-8.752,25.84l 37.584,0 c 5.632,0, 10.208-4.576, 10.208-10.208L 512.16,368 C 512.144,363.584, 515.728,360, 520.144,360zM 584,240c-4.416,0-8-3.584-8-8s 3.584-8, 8-8c 5.616,0, 8-2.384, 8-8l0-96 c0-5.616-2.384-8-8-8l-128,0 c-5.616,0-8,2.384-8,8l0,80 c0,5.616, 2.384,8, 8,8l 96,0 c 4.416,0, 8,3.584, 8,8l0,96 C 560,326.576, 550.576,336, 536,336L 48,336 C 28.272,336, 16,348.272, 16,368s 12.272,32, 32,32l 81.216,0 L 80.8,384.032C 76.608,382.656, 74.32,378.128, 75.696,373.936 c 1.104-3.36, 4.24-5.488, 7.6-5.488c 0.832,0, 1.664,0.128, 2.512,0.4l 289.904,95.568c 4.192,1.392, 6.48,5.904, 5.088,10.112 c-1.376,4.192-5.904,6.48-10.112,5.088L 177.088,415.776C 176.72,415.84, 176.384,416, 176,416L 48,416 C 19.296,416,0,396.704,0,368l0-352 c0-28.704, 19.296-48, 48-48l 488,0 c 14.576,0, 24,9.424, 24,24l0,80 c0,4.416-3.584,8-8,8S 544,76.416, 544,72l0-80 c0-5.616-2.384-8-8-8L 48-16 c-19.728,0-32,12.272-32,32 L 16,331.008 C 24.208,324.080, 35.072,320, 48,320l 488,0 c 5.616,0, 8-2.384, 8-8L 544,224 l-88,0 c-14.576,0-24-9.424-24-24l0-80 c0-14.576, 9.424-24, 24-24 l 128,0 c 14.576,0, 24,9.424, 24,24l0,96 C 608,230.576, 598.576,240, 584,240zM 496,160A16,16 180 1 1 528,160A16,16 180 1 1 496,160z" horiz-adv-x="608" data-tags="wallet"/><glyph unicode="" d="M 24,208C 19.584,208, 16,204.416, 16,200l0-192 C 16-5.232, 26.768-16, 40-16l 160,0 c 4.416,0, 8,3.584, 8,8 S 204.416,0, 200,0l-160,0 C 35.584,0, 32,3.584, 32,8l0,192 C 32,204.416, 28.416,208, 24,208zM 648,208c-4.416,0-8-3.584-8-8l0-192 c0-4.416-3.584-8-8-8l-336,0 c-4.416,0-8-3.584-8-8 s 3.584-8, 8-8l 336,0 c 13.232,0, 24,10.768, 24,24l0,192 C 656,204.416, 652.416,208, 648,208zM 288,456C 288,451.584, 291.584,448, 296,448l 336,0 C 636.416,448, 640,444.416, 640,440l0-143.328 c0-4.416, 3.584-8, 8-8 s 8,3.584, 8,8L 656,440 C 656,453.232, 645.232,464, 632,464l-336,0 C 291.584,464, 288,460.416, 288,456zM 40,464C 26.768,464, 16,453.232, 16,440l0-143.328 c0-4.416, 3.584-8, 8-8s 8,3.584, 8,8L 32,440 C 32,444.416, 35.584,448, 40,448l 160,0 C 204.416,448, 208,451.584, 208,456S 204.416,464, 200,464L 40,464 zM 664,256.672L 337.6,256.672 c 6.352,2.816, 11.84,6.096, 15.744,10c 24.176,24.176, 24.176,63.504,0,87.68 c-23.424,23.424-64.256,23.424-87.68,0C 261.904,350.592, 258.752,345.344, 256,339.312L 256,472 C 256,476.416, 252.416,480, 248,480S 240,476.416, 240,472l0-211.6 c-27.248,11.232-75.216,34.304-85.056,54.192c-6.4,12.928-7.376,27.552-2.768,41.216c 4.624,13.664, 14.272,24.688, 27.184,31.088 c 3.968,1.968, 5.584,6.752, 3.632,10.72c-1.984,3.968-6.752,5.6-10.72,3.632c-16.752-8.288-29.264-22.608-35.248-40.32 C 131.040,343.216, 132.32,324.24, 140.608,307.504c 9.68-19.552, 42.080-38.256, 68.4-50.832L 8,256.672 c-4.416,0-8-3.584-8-8s 3.584-8, 8-8l 149.536,0 c-6.192-2.784-11.552-6-15.376-9.824c-24.176-24.176-24.176-63.504,0-87.68c 11.712-11.712, 27.28-18.16, 43.84-18.16 s 32.128,6.448, 43.84,18.16c 3.968,3.968, 7.296,9.584, 10.16,16.080L 240-24 c0-4.416, 3.584-8, 8-8s 8,3.584, 8,8L 256,236.88 c 27.328-11.296, 74.768-34.208, 84.56-53.984c 6.4-12.928, 7.376-27.552, 2.768-41.216c-4.624-13.664-14.272-24.688-27.184-31.088 c-3.968-1.968-5.584-6.752-3.632-10.72c 1.392-2.816, 4.24-4.448, 7.184-4.448c 1.184,0, 2.4,0.272, 3.536,0.832 c 16.752,8.288, 29.264,22.608, 35.248,40.32c 5.984,17.712, 4.704,36.672-3.584,53.424c-9.632,19.456-41.776,38.080-68.032,50.672L 664,240.672 c 4.416,0, 8,3.584, 8,8S 668.416,256.672, 664,256.672z M 276.976,343.024c 8.688,8.688, 20.24,13.472, 32.528,13.472s 23.84-4.784, 32.528-13.472 c 17.936-17.936, 17.936-47.12,0-65.056c-13.664-13.664-60.64-19.232-85.872-20.8C 257.952,286.992, 264.512,330.56, 276.976,343.024z M 218.528,154.48 c-17.376-17.376-47.68-17.376-65.056,0c-17.936,17.936-17.936,47.12,0,65.056c 13.664,13.664, 60.64,19.232, 85.872,20.8 C 237.552,210.512, 230.992,166.944, 218.528,154.48z" horiz-adv-x="672" data-tags="gift"/><glyph unicode="" d="M 416,312l0-320 c0-2.816, 0.576-5.488, 1.472-8l-50.944,0 C 367.424-13.488, 368-10.816, 368-8l0,464 C 368,469.232, 357.232,480, 344,480l-112,0 C 218.768,480, 208,469.232, 208,456l0-464 c0-2.816, 0.576-5.488, 1.472-8L 158.528-16 C 159.424-13.488, 160-10.816, 160-8 l0,176 c0,13.232-10.768,24-24,24l-112,0 C 10.768,192,0,181.232,0,168l0-176 C0-21.232, 10.768-32, 24-32L 80-32 l 56,0 l 96,0 l 112,0 l 96,0 l 112,0 c 13.232,0, 24,10.768, 24,24 l0,320 C 576,325.232, 565.232,336, 552,336l-112,0 C 426.768,336, 416,325.232, 416,312z M 80-16L 24-16 C 19.6-16, 16-12.416, 16-8l0,176 C 16,172.416, 19.6,176, 24,176l 112,0 C 140.4,176, 144,172.416, 144,168l0-176 C 144-12.416, 140.4-16, 136-16L 80-16 z M 232-16c-4.4,0-8,3.584-8,8l0,464 C 224,460.416, 227.6,464, 232,464l 112,0 C 348.4,464, 352,460.416, 352,456l0-464 c0-4.416-3.6-8-8-8L 232-16 z M 560,312l0-320 c0-4.416-3.6-8-8-8l-112,0 c-4.4,0-8,3.584-8,8l0,320 c0,4.416, 3.6,8, 8,8l 112,0 C 556.4,320, 560,316.416, 560,312z" horiz-adv-x="576" data-tags="bargraph"/><glyph unicode="" d="M 456,304c 4.416,0, 8,3.584, 8,8S 460.416,320, 456,320L 336,320 L 336,440 C 336,444.416, 332.416,448, 328,448S 320,444.416, 320,440L 320,320 l-144,0 L 176,440 C 176,444.416, 172.416,448, 168,448S 160,444.416, 160,440L 160,320 L 40,320 C 35.584,320, 32,316.416, 32,312S 35.584,304, 40,304L 160,304 l0-144 L 40,160 C 35.584,160, 32,156.416, 32,152S 35.584,144, 40,144L 160,144 l0-136 c0-4.416, 3.584-8, 8-8s 8,3.584, 8,8L 176,144 l 144,0 l0-136 c0-4.416, 3.584-8, 8-8s 8,3.584, 8,8L 336,144 l 120,0 c 4.416,0, 8,3.584, 8,8S 460.416,160, 456,160L 336,160 l0,144 L 456,304 z M 320,160l-144,0 l0,144 l 144,0 L 320,160 z M 496-8l0,464 C 496,469.232, 485.232,480, 472,480l-448,0 C 10.768,480,0,469.232,0,456l0-464 C0-21.232, 10.768-32, 24-32l 448,0 C 485.232-32, 496-21.232, 496-8z M 16-8l0,464 C 16,460.416, 19.6,464, 24,464l 448,0 C 476.4,464, 480,460.416, 480,456l0-464 c0-4.416-3.6-8-8-8l-448,0 C 19.6-16, 16-12.416, 16-8z" horiz-adv-x="496" data-tags="grid"/><glyph unicode="" d="M 512-8l0,464 C 512,469.232, 501.232,480, 488,480l-464,0 C 10.768,480,0,469.232,0,456l0-144 C0,307.584, 3.584,304, 8,304 S 16,307.584, 16,312l0,144 C 16,460.416, 19.6,464, 24,464l 464,0 C 492.4,464, 496,460.416, 496,456l0-464 c0-4.416-3.6-8-8-8l-144,0 c-4.416,0-8-3.584-8-8s 3.584-8, 8-8l 144,0 C 501.232-32, 512-21.232, 512-8zM 24,272C 10.768,272,0,261.232,0,248l0-256 C0-21.232, 10.768-32, 24-32l 256,0 c 13.232,0, 24,10.768, 24,24L 304,260.688 l 112,112 L 416,264 c0-4.416, 3.584-8, 8-8s 8,3.584, 8,8l0,128 C 432,396.416, 428.416,400, 424,400l-128,0 C 291.584,400, 288,396.416, 288,392S 291.584,384, 296,384 l 108.672,0 l-112-112L 24,272 z M 288-8c0-4.416-3.6-8-8-8l-256,0 C 19.6-16, 16-12.416, 16-8l0,256 C 16,252.416, 19.6,256, 24,256L 288,256 L 288-8 z" data-tags="expand"/><glyph unicode="" d="M 136,480l-112,0 C 10.768,480,0,469.232,0,456l0-96 C0,355.584, 3.584,352, 8,352S 16,355.584, 16,360l0,96 C 16,460.416, 19.6,464, 24,464l 112,0 C 140.416,464, 144,467.584, 144,472S 140.416,480, 136,480zM 648,480l-112,0 C 531.584,480, 528,476.416, 528,472S 531.584,464, 536,464l 112,0 C 652.4,464, 656,460.416, 656,456l0-96 C 656,355.584, 659.584,352, 664,352S 672,355.584, 672,360l0,96 C 672,469.232, 661.232,480, 648,480zM 664,96c-4.416,0-8-3.584-8-8l0-96 c0-4.416-3.6-8-8-8l-112,0 c-4.416,0-8-3.584-8-8 s 3.584-8, 8-8l 112,0 c 13.232,0, 24,10.768, 24,24l0,96 C 672,92.416, 668.416,96, 664,96zM 8,96C 3.584,96,0,92.416,0,88l0-96 C0-21.232, 10.768-32, 24-32l 112,0 C 140.416-32, 144-28.416, 144-24S 140.416-16, 136-16 l-112,0 C 19.6-16, 16-12.416, 16-8l0,96 C 16,92.416, 12.416,96, 8,96zM 376,176c 4.416,0, 8,3.584, 8,8l0,80 c0,4.416-3.584,8-8,8l-80,0 c-4.416,0-8-3.584-8-8l0-80 c0-4.416, 3.584-8, 8-8L 376,176 z M 304,256l 64,0 l0-64 l-64,0 L 304,256 z" horiz-adv-x="672" data-tags="focus"/><glyph unicode="" d="M 24-32l 464,0 c 13.232,0, 24,10.768, 24,24l0,464 C 512,469.232, 501.232,480, 488,480l-464,0 C 10.768,480,0,469.232,0,456l0-464 C0-21.232, 10.768-32, 24-32z M 16,456C 16,460.416, 19.6,464, 24,464l 464,0 C 492.4,464, 496,460.416, 496,456l0-464 c0-4.416-3.6-8-8-8l-464,0 C 19.6-16, 16-12.416, 16-8L 16,456 zM 64,24.336c 0.768,0, 1.536,0.112, 2.288,0.336l 160,47.664c 1.296,0.384, 2.464,1.088, 3.408,2.032l 161.44,163.28 c 0.368,0.384, 0.56,0.848, 0.832,1.28l 58.528,58.528c 9.712,9.712, 9.712,25.52,0,35.248L 366.72,416.448c-9.712,9.712-25.52,9.728-35.232,0 l-59.824-59.824c-0.384-0.384-0.576-0.864-0.864-1.296L 108.912,193.424c-0.896-0.896-1.568-1.984-1.952-3.184l-50.56-155.44 c-0.928-2.832-0.192-5.936, 1.872-8.064C 59.792,25.184, 61.872,24.336, 64,24.336z M 277.744,339.664l 16.64-16.64l-136.368-137.008l-27.632,6.272 L 277.744,339.664z M 168,173.36l 137.712,138.336l 38.944-38.944L 204.736,136L 168,136 L 168,173.36 z M 374.16,243.248l-147.936-149.632l-9.216,31.984 l 138.944,135.824L 374.16,243.248z M 119.888,178.256L 152,170.96L 152,128 c0-4.416, 3.584-8, 8-8l 41.984,0 l 10.128-35.2l-135.792-40.448L 119.888,178.256z M 342.8,405.136c 3.488,3.472, 9.152,3.456, 12.608,0l 83.76-83.76c 3.488-3.472, 3.488-9.136,0-12.624l-53.952-53.952l-96.368,96.368 L 342.8,405.136z" data-tags="edit"/><glyph unicode="" d="M 496,480L 32,480 C 18.848,480,0,461.152,0,448l0-448 c0-13.152, 18.848-32, 32-32l 464,0 c 13.152,0, 32,18.848, 32,32L 528,448 C 528,461.152, 509.152,480, 496,480z M 512,0c-0.096-4.544-11.456-15.904-16-16L 32-16 c-4.544,0.096-15.904,11.456-16,16L 16,448 c 0.096,4.544, 11.456,15.904, 16,16l 464,0 c 4.544-0.096, 15.904-11.456, 16-16L 512,0 zM 264,392c-17.648,0-32-14.352-32-32s 14.352-32, 32-32s 32,14.352, 32,32S 281.648,392, 264,392z M 264,344 c-8.816,0-16,7.184-16,16s 7.184,16, 16,16s 16-7.184, 16-16S 272.816,344, 264,344zM 392,136c-17.648,0-32-14.352-32-32s 14.352-32, 32-32s 32,14.352, 32,32S 409.648,136, 392,136z M 392,88 c-8.816,0-16,7.184-16,16s 7.184,16, 16,16s 16-7.184, 16-16S 400.816,88, 392,88zM 136,216c-17.648,0-32-14.352-32-32s 14.352-32, 32-32s 32,14.352, 32,32S 153.648,216, 136,216z M 136,168 c-8.816,0-16,7.184-16,16s 7.184,16, 16,16s 16-7.184, 16-16S 144.816,168, 136,168zM 136,240C 140.416,240, 144,243.584, 144,248l0,144 C 144,396.416, 140.416,400, 136,400S 128,396.416, 128,392l0-144 C 128,243.584, 131.584,240, 136,240zM 136,128C 131.584,128, 128,124.416, 128,120l0-48 C 128,67.584, 131.584,64, 136,64S 144,67.584, 144,72l0,48 C 144,124.416, 140.416,128, 136,128 zM 264,304c-4.416,0-8-3.584-8-8l0-224 c0-4.416, 3.584-8, 8-8s 8,3.584, 8,8l0,224 C 272,300.416, 268.416,304, 264,304zM 392,160c 4.416,0, 8,3.584, 8,8l0,224 C 400,396.416, 396.416,400, 392,400S 384,396.416, 384,392l0-224 C 384,163.584, 387.584,160, 392,160z" horiz-adv-x="528" data-tags="adjustments"/><glyph unicode="" d="M 24,336C 19.584,336, 16,332.416, 16,328l0-335.136 c0-10.64, 5.056-16.624, 9.312-19.76C 30.4-30.672, 36.384-32, 41.728-32 c 3.216,0, 6.192,0.48, 8.608,1.232c 46.864,14.32, 149.52,119.712, 175.568,147.040c 25.392-27.488, 124.88-132.72, 171.744-147.040 c 6.464-1.984, 16.88-2.16, 25.024,3.888C 426.944-23.744, 432-17.776, 432-7.136L 432,328 C 432,332.416, 428.416,336, 424,336S 416,332.416, 416,328l0-335.136 c0-4.32-1.616-6-2.832-6.896c-2.848-2.112-7.744-2.4-10.832-1.456c-48.64,14.864-169.2,147.52-170.4,148.848 c-1.504,1.664-3.632,2.624-5.872,2.64c-2.032,0.016-4.368-0.896-5.904-2.544c-1.248-1.328-125.792-134.048-174.496-148.944 c-3.072-0.944-7.984-0.656-10.832,1.456C 33.616-13.136, 32-11.44, 32-7.136L 32,328 C 32,332.416, 28.416,336, 24,336zM 448,376l0,80 C 448,469.232, 437.232,480, 424,480l-400,0 C 10.768,480,0,469.232,0,456l0-80 C0,371.584, 3.584,368, 8,368l 432,0 C 444.416,368, 448,371.584, 448,376z M 432,384L 16,384 L 16,456 C 16,460.416, 19.584,464, 24,464l 400,0 C 428.416,464, 432,460.416, 432,456L 432,384 z" horiz-adv-x="448" data-tags="ribbon"/><glyph unicode="" d="M 336.336,472c0,4.416-3.584,8-8,8L 7.664,480 c-4.416,0-8-3.584-8-8S 3.232,464, 7.664,464l 320.688,0 C 332.768,464, 336.336,467.584, 336.336,472zM 320,382.208L 320,440 C 320,444.416, 316.416,448, 312,448L 25.312,448 c-4.416,0-8-3.584-8-8l0-57.792 c0-79.616, 60.928-133.6, 96.224-158.176C 73.072,196.16, 16,143.12, 16,65.792L 16,8 C 16,3.584, 19.584,0, 24,0l 288,0 c 4.416,0, 8,3.584, 8,8 l0,57.328 c0,79.392-61.808,133.84-97.52,158.656C 262.944,251.856, 320,304.88, 320,382.208z M 168,92.96L 244.96,16L 91.040,16 L 168,92.96z M 203.712,230.752 C 201.392,229.296, 200,226.736, 200,224s 1.392-5.296, 3.712-6.752C 233.872,198.128, 304,145.040, 304,65.328L 304,16 l-36.608,0 c-0.144,0.176-0.208,0.4-0.368,0.56L 176,107.584L 176,120 c0,4.416-3.584,8-8,8S 160,124.416, 160,120l0-12.416 l-91.024-91.024 c-0.16-0.16-0.224-0.384-0.368-0.56L 32,16 l0,49.792 c0,76.432, 62.832,127.696, 100.288,151.44C 134.608,218.704, 136,221.264, 136,224 s-1.392,5.296-3.712,6.752C 102.528,249.632, 32,302.16, 32,382.208L 32,432 l 272,0 l0-49.792 C 304,305.76, 241.168,254.512, 203.712,230.752zM 248.656,336.448L 91.632,336.448 c-2.864,0-5.52-1.536-6.944-4.016C 83.264,329.936, 83.28,326.88, 84.72,324.4 c 18.992-32.336, 46.72-52.128, 76.080-73.104l 2.544-1.808c 1.392-0.992, 3.008-1.488, 4.656-1.488s 3.264,0.496, 4.656,1.488 c 4.192,2.992, 8.416,5.936, 12.64,8.88c 26.224,18.304, 53.344,37.216, 70.256,66.032c 1.456,2.464, 1.472,5.536, 0.048,8.016 C 254.16,334.912, 251.52,336.448, 248.656,336.448z M 176.128,271.504c-2.704-1.888-5.408-3.776-8.112-5.68 c-24.080,17.2-45.36,32.672-61.536,54.64l 127.088,0 C 218.512,301.072, 197.824,286.64, 176.128,271.504zM 7.664-32l 320.688,0 c 4.416,0, 8,3.584, 8,8s-3.584,8-8,8L 7.664-16 c-4.416,0-8-3.584-8-8 S 3.232-32, 7.664-32zM 168,176c-4.416,0-8-3.584-8-8l0-16 c0-4.416, 3.584-8, 8-8s 8,3.584, 8,8l0,16 C 176,172.416, 172.416,176, 168,176zM 168,224c-4.416,0-8-3.584-8-8l0-16 c0-4.416, 3.584-8, 8-8s 8,3.584, 8,8l0,16 C 176,220.416, 172.416,224, 168,224z" horiz-adv-x="336" data-tags="hourglass"/><glyph unicode="" d="M 224,480C 135.776,480, 64,408.224, 64,320l0-48 L 40,272 C 17.952,272,0,254.048,0,232l0-224 C0-14.048, 17.952-32, 40-32l 368,0 c 22.048,0, 40,17.952, 40,40l0,224 c0,22.048-17.952,40-40,40L 384,272 l0,48 C 384,408.224, 312.224,480, 224,480z M 80,320c0,79.392, 64.608,144, 144,144s 144-64.608, 144-144l0-48 l-48,0 l0,48 c0,52.944-43.056,96-96,96s-96-43.056-96-96l0-48 L 80,272 L 80,320 z M 304,272L 144,272 l0,48 c0,44.112, 35.888,80, 80,80s 80-35.888, 80-80L 304,272 z M 196.688,144l-80-80L 43.312,64 l 80,80 L 196.688,144 z M 292.688,144l-80-80L 139.312,64 l 80,80L 292.688,144 z M 388.688,144l-80-80l-73.376,0 l 80,80L 388.688,144 z M 432,144l0-80 l-100.688,0 l 80,80L 432,144 z M 20.688,64L 16,64 l0,80 l 84.688,0 L 20.688,64z M 408-16l-368,0 C 26.768-16, 16-5.232, 16,8L 16,48 l 416,0 l0-40 C 432-5.232, 421.232-16, 408-16z M 432,232L 432,160 L 16,160 l0,72 C 16,245.232, 26.768,256, 40,256l 368,0 C 421.232,256, 432,245.232, 432,232z" horiz-adv-x="448" data-tags="lock"/><glyph unicode="" d="M 631.968,480C 627.536,480, 624,476.416, 624,472l0-496 c0-4.416, 3.536-8, 7.968-8s 8,3.584, 8,8l0,496 C 639.968,476.416, 636.384,480, 631.968,480zM 603.472,460.736c-2.72,1.328-6.016,0.992-8.416-0.88l-9.040-7.12C 538.368,415.056, 458.672,352, 296,352L 74.096,352 C 50.88,352, 32,332.8, 32,309.216l0-171.424 C 32,114.752, 50.88,96, 74.096,96l 54.304,0 c 1.408-18, 8.032-60.704, 39.264-92.176 C 191.248-19.952, 223.664-32, 264-32c 4.416,0, 8,3.584, 8,8S 268.416-16, 264-16c-35.872,0-64.416,10.432-84.896,31.008 C 152.432,41.824, 146.032,79.392, 144.496,96l 47.92,0 c 1.36-10.912, 5.76-30.096, 20.384-44.832C 225.424,38.448, 242.656,32, 264,32 c 4.416,0, 8,3.584, 8,8S 268.416,48, 264,48c-16.88,0-30.256,4.832-39.744,14.336c-10.512,10.544-14.304,24.736-15.696,33.664l 86.336,0 c 163.456,0, 243.792-63.408, 291.792-101.296l 8.352-6.576c 1.424-1.12, 3.168-1.68, 4.912-1.68c 1.2,0, 2.4,0.272, 3.504,0.816 c 2.752,1.344, 4.496,4.128, 4.496,7.184L 607.952,453.552 C 607.968,456.608, 606.224,459.392, 603.472,460.736z M 48,137.792L 48,309.216 C 48,323.984, 59.696,336, 74.096,336L 128,336 l0-224 L 74.096,112 C 59.456,112, 48,123.328, 48,137.792z M 592,10.928C 541.856,50.384, 458.752,112, 294.912,112l-92.752,0 c-0.752,0.24-1.52,0.48-2.368,0.496 c-0.016,0-0.016,0-0.032,0c-0.864,0-1.68-0.24-2.464-0.496L 144,112 L 144,336 l 152,0 C 459.792,336, 542.304,397.824, 592,437.056L 592,10.928 zM 8,130.288c 4.416,0, 8,3.584, 8,8L 16,309.712 c0,4.416-3.584,8-8,8S0,314.144,0,309.712l0-171.424 C0,133.872, 3.584,130.288, 8,130.288z" horiz-adv-x="640" data-tags="megaphone"/><glyph unicode="" d="M 216,480C 73.008,480, 4.672,399.248, 1.824,395.808C 0.656,394.368,0,392.576,0,390.704l0-160.864 c0-136.064, 125.216-216.848, 179.040-245.264c 3.904-2.064, 8.736-0.56, 10.816,3.344c 2.064,3.904, 0.56,8.752-3.344,10.816 C 122.832,32.352, 16,107.072, 16,229.856L 16,387.664 c 11.232,12.080, 74.112,73.552, 192,76.24L 208-24 c0-4.416, 3.584-8, 8-8 c 2.384,0, 4.528,1.040, 6,2.704C 248.192-18.032, 432,66.944, 432,232l0,160 c0,1.872-0.656,3.68-1.84,5.104 c-2.368,2.864-59.424,70-178.256,81.984c-4.4,0.304-8.336-2.768-8.768-7.152c-0.448-4.4, 2.768-8.32, 7.152-8.768 C 350.88,453.024, 405.536,400.048, 416,388.928L 416,232 c0-143.232-149.808-223.184-192-242.864L 224,472 C 224,476.416, 220.416,480, 216,480z" horiz-adv-x="432" data-tags="shield"/><glyph unicode="" d="M 408,464C 412.416,464, 416,467.584, 416,472S 412.416,480, 408,480l-272,0 C 131.584,480, 128,476.416, 128,472S 131.584,464, 136,464L 408,464 zM 408,448l-272,0 l-32,0 C 51.472,448, 26.992,429.344, 15.696,413.696c-13.824-19.2-16.416-44.848-7.296-72.224 c 14.112-42.336, 61.536-93.2, 90.688-115.792C 100.56,224.544, 102.288,224, 104,224c 2.384,0, 4.752,1.056, 6.336,3.104 c 2.704,3.488, 2.064,8.512-1.424,11.232c-26.784,20.736-72.4,69.472-85.312,108.208C 16.128,368.896, 17.936,389.424, 28.688,404.336 C 41.728,422.432, 67.76,432, 104,432L 128,432 l0-152 c0-107.616, 106.768-169.616, 128.576-181.152C 256.24,97.952, 256,97.008, 256,96l0-40 c0-4.416, 3.584-8, 8-8 s 8,3.584, 8,8L 272,96 c0,0.928-0.24,1.792-0.528,2.624C 295.696,110.016, 416,172, 416,280L 416,432 l 24,0 c 36.24,0, 62.272-9.568, 75.312-27.664 c 10.752-14.912, 12.56-35.44, 5.088-57.808c-10.080-30.256-60.304-88.848-85.312-108.208c-3.488-2.704-4.128-7.728-1.424-11.232 C 435.248,225.056, 437.616,224, 440,224c 1.712,0, 3.44,0.544, 4.912,1.664c 27.712,21.472, 79.376,81.904, 90.688,115.792 c 9.12,27.376, 6.528,53.024-7.296,72.224C 517.008,429.344, 492.528,448, 440,448L 408,448 z M 400,280c0-97.488-114.432-156.864-135.776-167.088 C 244.576,123.552, 144,182.784, 144,280L 144,432 l 256,0 L 400,280 zM 176,32c-18.256,0-32-13.76-32-32l0-24 C 144-28.416, 147.584-32, 152-32l 224,0 c 4.416,0, 8,3.584, 8,8l0,22.8 C 384,17.408, 369.936,32, 352,32L 176,32 z M 368-1.2L 368-16 L 160-16 l0,16 c0,9.424, 6.576,16, 16,16l 176,0 C 361.12,16, 368,8.608, 368-1.2z" horiz-adv-x="544" data-tags="trophy"/><glyph unicode="" d="M 216,464l-176,0 C 35.584,464, 32,460.416, 32,456l0-240 C 32,211.584, 35.584,208, 40,208l 176.032,0 C 220.048,208, 240,206.816, 240,184 c0-4.416, 3.584-8, 8-8s 8,3.584, 8,8L 256,424.256 C 255.568,438, 246.656,464, 216,464z M 240,216.704C 231.984,222.096, 222.592,224, 216,224L 48,224 L 48,448 l 168,0 c 22.336,0, 23.904-21.808, 24-24L 240,216.704 zM 421.264,144L 199.792,144 c 0.096-0.016-11.248-0.144-18.24,6.704c-4.016,3.952-6.064,9.76-6.064,17.296 c0,4.416-3.584,8-8,8s-8-3.584-8-8c0-12.064, 3.696-21.76, 11.008-28.848C 181.488,128.512, 196.864,128, 199.6,128 c 0.24,0, 221.664,0, 221.664,0c 6.224,0, 11.504,2.512, 14.896,7.088c 4.496,6.064, 4.4,13.808, 2.96,18.592 c-9.008,29.648-56.656,94.128-70.064,111.936c 12.912,19.856, 61.040,95.040, 70.064,124.688c 1.456,4.784, 1.552,12.512-2.96,18.592 C 432.768,413.488, 427.488,416, 421.264,416l-140.592,0 c-4.416,0-8-3.584-8-8s 3.584-8, 8-8l 140.592,0 c 1.584,0, 1.904-0.448, 2.032-0.624 c 0.752-0.992, 0.88-3.152, 0.496-4.4c-9.536-31.376-70.592-124.352-71.216-125.296c-1.872-2.848-1.728-6.56, 0.336-9.264 c 0.608-0.8, 61.424-80.288, 70.88-111.376c 0.368-1.264, 0.256-3.408-0.496-4.416C 423.168,144.448, 422.848,144, 421.264,144zM 16-24l0,496 C 16,476.416, 12.416,480, 8,480S0,476.416,0,472l0-496 C0-28.416, 3.584-32, 8-32S 16-28.416, 16-24z" horiz-adv-x="448" data-tags="flag"/><glyph unicode="" d="M 147.824-30.832c 0.144-0.096, 0.336-0.048, 0.48-0.144C 149.472-31.568, 150.688-32, 152-32 c 0.704,0, 1.408,0.096, 2.112,0.288L 328,15.744l 173.888-47.456C 502.592-31.904, 503.296-32, 504-32c 1.312,0, 2.528,0.432, 3.68,1.040 c 0.16,0.080, 0.336,0.048, 0.48,0.144l 144,88c 3.056,1.872, 4.496,5.568, 3.52,9.008l-79.744,280c-0.656,2.352-2.368,4.272-4.64,5.216 c-2.272,0.912-4.816,0.768-6.976-0.416l-79.392-44.544c-3.84-2.16-5.216-7.040-3.056-10.896c 2.16-3.872, 7.024-5.232, 10.912-3.056 l 70.544,39.6l 75.312-264.416L 510.4-10.704l-30.464,243.696c-0.544,4.4-4.688,7.456-8.944,6.944c-4.368-0.544-7.488-4.544-6.944-8.928 l 30.512-244.144L 336,30.144l0,43.68 c0,4.416-3.584,8-8,8s-8-3.584-8-8l0-43.68 l-158.576-43.28l 30.512,244.144 c 0.544,4.384-2.56,8.384-6.944,8.928c-4.352,0.512-8.384-2.544-8.944-6.944L 145.6-10.704l-128.24,78.368L 92.672,332.064l 70.544-39.6 c 3.872-2.144, 8.736-0.784, 10.912,3.056c 2.16,3.856, 0.784,8.72-3.056,10.896L 91.664,350.976C 89.536,352.176, 86.992,352.336, 84.704,351.392 c-2.272-0.944-3.984-2.848-4.64-5.216l-79.744-280c-0.992-3.456, 0.448-7.136, 3.52-9.008L 147.824-30.832zM 322.576,106.112c 1.536-1.408, 3.472-2.112, 5.424-2.112c 1.92,0, 3.84,0.688, 5.376,2.064 C 338.704,110.912, 464,225.888, 464,344C 464,420.272, 404.272,480, 328,480S 192,420.272, 192,344C 192,227.936, 317.248,111.040, 322.576,106.112z M 328,464 C 396.4,464, 448,412.416, 448,344c0-97.552-95.888-197.392-119.952-220.912C 304.032,146.88, 208,248.032, 208,344C 208,412.416, 259.6,464, 328,464zM 400,344C 400,383.696, 367.696,416, 328,416S 256,383.696, 256,344s 32.304-72, 72-72S 400,304.304, 400,344z M 328,288 c-30.88,0-56,25.12-56,56S 297.12,400, 328,400S 384,374.88, 384,344S 358.88,288, 328,288z" horiz-adv-x="656" data-tags="map"/><glyph unicode="" d="M 320.672,417.488C 320.672,448.608, 295.728,480, 240,480c-49.072,0-82.064-25.12-82.064-62.512 c0-21.824, 8.832-31.776, 14.672-38.368c 3.088-3.472, 4.336-5.040, 4.336-6.608c0-2.592,0-4.16-8.928-4.512L 70.448,368 C 32.928,368,0,338.096,0,304 l0-59.712 c 0.608-15.104, 9.136-24.496, 22.272-24.496c 7.472,0, 13.008,4.272, 18.384,8.416C 47.856,233.728, 56,240, 72,240C 99.136,240, 128,217.568, 128,176 c0-42.064-29.248-71.392-55.504-71.392c-15.84,0-24.128,6.864-31.456,12.912c-5.488,4.544-11.152,9.248-18.784,9.248 c-13.12,0-21.664-9.392-22.272-24.816l0-65.632 C0,0.56, 33.584-32, 70.448-32l 98.064,0c 14.848,0.608, 24.432,9.36, 24.432,22.336 c0,7.792-4.432,12.8-8.352,17.216c-5.248,5.904-10.656,12-10.656,27.744c0,28.256, 25.664,46.512, 65.36,46.512 c 39.712,0, 65.376-18.256, 65.376-46.512c0-15.744-5.424-21.84-10.656-27.744c-3.92-4.416-8.368-9.424-8.368-17.216 c0-13.152, 9.36-21.696, 24.768-22.32L 373.472-32c 34.432,0, 58.496,26.832, 58.496,65.248l0,74.4 c 0.416,1.952, 5.344,9.408, 12.864,9.408 c 1.536,0, 3.088-1.264, 6.544-4.336c 6.56-5.872, 16.496-14.752, 38.288-14.752C 524.608,97.984, 560,124.768, 560,176c0,55.264-32.144,80-64,80 c-21.504,0-33.92-9.824-42.144-16.32c-3.648-2.88-7.072-5.6-9.024-5.6c-7.536,0-12.464,7.488-12.832,9.136 c-0.016,0.128-0.016,0.256-0.032,0.384l0,57.328 C 431.968,339.792, 407.36,368, 373.472,368l-62.736,0 c-0.208,0.016-0.416,0.032-0.64,0.048 c-8.448,0.32-8.448,1.872-8.448,4.464c0,1.568, 1.248,3.12, 4.336,6.608C 311.824,385.696, 320.672,395.664, 320.672,417.488z M 294.016,389.728 c-3.92-4.416-8.368-9.44-8.368-17.232c0-8.8, 4.016-19.392, 23.536-20.432C 309.552,352.016, 309.92,352, 310.304,352l 63.168,0 C 401.376,352, 416,326.304, 416,300.928l0-58.128 c0-0.576-0.112-1.136,0-1.68c 1.472-9.776, 13.472-23.024, 28.832-23.024 c 7.52,0, 13.056,4.384, 18.96,9.040C 471.408,233.168, 480.064,240, 496,240c 29.152,0, 48-25.12, 48-64c0-42.624-28.176-62.016-54.336-62.016 c-15.664,0-21.744,5.424-27.632,10.672c-4.416,3.936-9.424,8.4-17.2,8.4c-15.36,0-27.376-13.264-28.832-23.040 c-0.112-0.544,0-1.104,0-1.68l0-75.104 C 416,8.736, 402.832-16, 373.472-16l-62.736,0 c-9.088,0.368-9.088,4.56-9.088,6.336 c0,1.552, 1.248,3.12, 4.336,6.608c 5.84,6.592, 14.688,16.544, 14.688,38.368c0,31.12-25.152,62.512-81.376,62.512 c-48.656,0-81.36-25.12-81.36-62.512c0-21.824, 8.832-31.776, 14.688-38.368c 3.072-3.472, 4.336-5.040, 4.336-6.608 c0-1.792,0-5.984-8.768-6.336L 70.448-16 C 42.976-16, 16,9.92, 16,36.32l0,65.312 c 0.352,9.136, 4.496,9.136, 6.272,9.136 c 1.856,0, 5.12-2.704, 8.592-5.568c 7.968-6.608, 20.048-16.592, 41.648-16.592C 107.024,88.608, 144,123.728, 144,176c0,51.968-37.088,80-72,80 c-21.44,0-33.264-9.088-41.088-15.12c-3.552-2.736-6.624-5.088-8.64-5.088c-1.76,0-5.904,0-6.272,8.816L 16,304 c0,28.288, 28.704,48, 54.448,48 l 97.84,0 c 0.256,0, 0.496,0.016, 0.752,0.032l0,0 c 19.76,0.736, 23.904,11.552, 23.904,20.48c0,7.792-4.432,12.8-8.352,17.216 c-5.248,5.904-10.656,12-10.656,27.76C 173.936,445.312, 200.48,464, 240,464c 39.28,0, 64.672-18.256, 64.672-46.512 C 304.672,401.744, 299.248,395.632, 294.016,389.728z" horiz-adv-x="560" data-tags="puzzle"/><glyph unicode="" d="M 632,256l-592,0 c-2.464,0-4.8-1.136-6.32-3.072c-1.52-1.936-2.048-4.464-1.456-6.864L 96.32-10.208 C 97.856-15.6, 102.576-32, 120-32l 432,0 c 17.488,0, 22.16,16.416, 23.76,22.064l 64,256c 0.592,2.384, 0.064,4.928-1.456,6.864 C 636.8,254.864, 634.464,256, 632,256z M 560.32-5.808C 557.408-16, 554.4-16, 552-16l-432,0 c-2.384,0-5.376,0-8.24,9.936L 50.256,240l 571.504,0 L 560.32-5.808zM 296,32c 4.416,0, 8,3.584, 8,8l0,144 c0,4.416-3.584,8-8,8S 288,188.416, 288,184l0-144 C 288,35.584, 291.584,32, 296,32zM 183.984,32c 0.304,0, 0.592,0.016, 0.912,0.048c 4.384,0.496, 7.552,4.448, 7.056,8.832l-16,144 c-0.48,4.4-4.32,7.504-8.848,7.072c-4.384-0.496-7.552-4.448-7.056-8.832l 16-144C 176.496,35.024, 179.968,32, 183.984,32zM 392,32c 4.416,0, 8,3.584, 8,8l0,144 c0,4.416-3.584,8-8,8S 384,188.416, 384,184l0-144 C 384,35.584, 387.584,32, 392,32zM 487.104,32.048C 487.424,32.016, 487.712,32, 488.016,32c 4.016,0, 7.488,3.024, 7.936,7.12l 16,144 c 0.48,4.384-2.672,8.336-7.056,8.832c-4.592,0.448-8.352-2.672-8.848-7.072l-16-144C 479.568,36.496, 482.72,32.544, 487.104,32.048zM 552,288c 1.856,0, 3.712,0.64, 5.232,1.952c 3.344,2.896, 3.696,7.936, 0.816,11.28l-152,176 c-2.896,3.36-7.936,3.696-11.28,0.832c-3.344-2.896-3.696-7.936-0.816-11.28l 152-176C 547.536,288.944, 549.76,288, 552,288zM 285.056,478.192c-3.408,2.768-8.448,2.304-11.248-1.136l-144-176c-2.8-3.408-2.304-8.448, 1.12-11.264 C 132.416,288.592, 134.224,288, 136,288c 2.32,0, 4.608,0.992, 6.192,2.944l 144,176C 288.992,470.352, 288.48,475.392, 285.056,478.192zM 664,320l-64,0 c-4.416,0-8-3.584-8-8s 3.584-8, 8-8l 64,0 c 4.416,0, 8,3.584, 8,8S 668.416,320, 664,320z M 216,304l 256,0 c 4.416,0, 8,3.584, 8,8S 476.416,320, 472,320l-256,0 c-4.416,0-8-3.584-8-8 S 211.584,304, 216,304zM 8,304l 80,0 C 92.416,304, 96,307.584, 96,312S 92.416,320, 88,320l-80,0 C 3.584,320,0,316.416,0,312S 3.584,304, 8,304z" horiz-adv-x="672" data-tags="basket"/><glyph unicode="" d="M 320.96,473.392c-9.28,8.528-24.624,8.528-33.904,0L 4.048,302.656c-2.4-1.456-3.872-4.048-3.872-6.848l0-302.752 C 0.176-20.752, 11.472-32, 25.36-32l 557.28,0 c 13.888,0, 25.184,11.248, 25.184,25.056L 607.824,295.808 c0,2.8-1.472,5.392-3.872,6.848L 320.96,473.392z M 296.064,460.16c 0.56,0.336, 1.056,0.736, 1.52,1.184C 299.312,463.056, 301.584,464, 304,464s 4.688-0.944, 6.4-2.656 c 0.464-0.448, 0.976-0.848, 1.52-1.184l 275.632-166.304L 387.904,174.88c-3.792-2.272-5.040-7.168-2.784-10.976 C 386.624,161.392, 389.28,160, 392,160c 1.392,0, 2.8,0.352, 4.080,1.12L 592,277.76l0-284.112 L 321.040,173.904 c-8.608,6.864-25.504,6.864-33.536,0.4L 16-6.272L 16,277.76 l 195.904-116.64C 213.184,160.352, 214.608,160, 216,160c 2.72,0, 5.376,1.392, 6.88,3.904 c 2.256,3.792, 1.008,8.704-2.784,10.976L 20.432,293.856L 296.064,460.16z M 577.44-16L 30.432-16 l 266.496,177.376 c 2.768,2.208, 11.392,2.192, 14.704-0.4L 577.44-16zM 104,272l 400,0 c 4.416,0, 8,3.584, 8,8S 508.416,288, 504,288l-400,0 C 99.584,288, 96,284.416, 96,280S 99.584,272, 104,272z" horiz-adv-x="608" data-tags="envelope"/><glyph unicode="" d="M 240-24L 240,128 c0,4.416-2.128,16-6.544,16S 224,140.416, 224,136l0-160 c0-4.416, 5.024-8, 9.456-8S 240-28.416, 240-24z M 241.456,455.008L 241.456,472 c0,4.416-3.584,8-8,8s-8-3.584-8-8l0-16.992 c0-4.416, 3.584-8, 8-8 S 241.456,450.576, 241.456,455.008zM 62.24,424.464L 5.168,379.696C 1.888,376.672,0,372.4,0,368s 1.888-8.672, 5.664-12.128l 56.080-43.92 C 66.656,307.424, 75.408,304, 82.112,304L 303.36,304 C 312.528,304, 320,311.408, 320,320.528L 320,415.472 C 320,424.592, 312.528,432, 303.36,432L 82.112,432 C 75.408,432, 66.656,428.576, 62.24,424.464z M 304,320.528C 304,320.288, 303.712,320, 303.36,320L 82.112,320 c-2.72,0-7.536,1.872-10,4.128L 15.536,367.536 l 57.056,44.768C 74.592,414.128, 79.392,416, 82.112,416L 304,415.472L 304,320.528 zM 402.256,280.048C 397.344,284.576, 388.592,288, 381.888,288L 160.64,288 C 151.472,288, 144,280.592, 144,271.472l0-94.96 C 144,167.408, 151.472,160, 160.64,160l 221.248,0 c 6.704,0, 15.456,3.424, 19.888,7.536l 57.056,44.768C 462.112,215.328, 464,219.6, 464,224 s-1.888,8.672-5.664,12.128L 402.256,280.048z M 160,272l 221.888,0 c 2.72,0, 7.536-1.872, 10-4.128l 56.576-43.408l-57.056-44.768 C 389.408,177.872, 384.608,176, 381.888,176L 160,176 L 160,272 z" horiz-adv-x="464" data-tags="streetsign"/><glyph unicode="" d="M 439.424,442.976c-0.848,2.112-2.544,3.76-4.672,4.544c-2.128,0.768-4.496,0.624-6.496-0.432L 237.76,346.576 c-3.584-1.888-5.184-6.16-3.728-9.936l 3.92-10.256L 127.984,266.080C 124.384,264.112, 122.864,259.76, 124.432,256l 3.648-8.784l-116.784-55.808 c-3.84-1.84-5.568-6.352-3.936-10.288l 23.968-57.76c 1.28-3.072, 4.24-4.944, 7.392-4.944c 0.896,0, 1.792,0.144, 2.672,0.464l 122,43.216 l 3.648-8.784c 1.264-3.056, 4.224-4.944, 7.392-4.944c 0.736,0, 1.472,0.096, 2.224,0.32l 116.416,33.552l 3.488-9.104 C 297.744,169.984, 300.768,168, 304,168c 0.784,0, 1.568,0.112, 2.352,0.352l 208,64c 2.144,0.656, 3.904,2.176, 4.864,4.192 c 0.96,2.016, 1.040,4.352, 0.208,6.416L 439.424,442.976z M 43.2,136.496l-18.144,43.744l 109.168,52.176l 23.024-55.52L 43.2,136.496z M 179.056,166.032 l-3.808,9.184c0,0,0,0,0,0L 145.76,246.336c0,0,0,0,0,0l-3.808,9.168l 101.376,55.6l 37.984-98.144l 6-15.696L 179.056,166.032z M 308.8,185.84 l-3.248,8.496c-0.048,0.176-0.016,0.384-0.096,0.56l-9.888,25.552l-44.064,115.296l 176.368,93.040l 73.472-183.68L 308.8,185.84zM 463.424,474.976c-1.648,4.112-6.32,6.096-10.4,4.464c-4.096-1.648-6.096-6.304-4.464-10.4l 96-240 C 545.824,225.904, 548.832,224, 552,224c 0.992,0, 2,0.176, 2.976,0.576c 4.096,1.648, 6.096,6.304, 4.464,10.4L 463.424,474.976zM 288,144l-48,0 c-18.24,0-32-13.76-32-32l0-21.040 l-94.064-109.744c-2.88-3.344-2.496-8.4, 0.864-11.28 C 116.304-31.36, 118.16-32, 120-32c 2.256,0, 4.496,0.944, 6.064,2.8L 219.68,80L 256,80 l0-104 c0-4.416, 3.584-8, 8-8s 8,3.584, 8,8L 272,80 l 36.32,0 l 93.6-109.2C 403.504-31.056, 405.744-32, 408-32c 1.84,0, 3.696,0.64, 5.2,1.936c 3.36,2.88, 3.744,7.92, 0.864,11.28L 320,90.96 l0,19.84 C 320,129.408, 305.952,144, 288,144z M 304,96l-80,0 l0,16 c0,9.424, 6.576,16, 16,16l 48,0 c 9.12,0, 16-7.392, 16-17.2L 304,96 z" horiz-adv-x="560" data-tags="telescope"/><glyph unicode="" d="M 59.072,132.48c 2.816-0.672, 6.64-4.144, 7.744-7.312l 5.6-13.504c 1.264-2.592, 1.024-7.728-0.48-10.192 l-22.352-36.544c-4.784-7.84-3.792-18.944, 2.64-26.144l 18.928-18.912c 6.592-5.856, 18.224-6.912, 25.808-2.32l 36.544,22.352 c 2.288,1.408, 7.2,1.904, 10.64,0.288l 13.488-5.568c 2.72-0.944, 6.192-4.752, 6.864-7.568l 10.032-41.664 c 2.128-8.832, 10.56-16.096, 19.616-16.928c0,0, 5.552-0.512, 13.872-0.512s 13.872,0.512, 13.888,0.512c 9.040,0.816, 17.472,8.096, 19.6,16.928 l 10.048,41.664c 0.672,2.8, 4.128,6.624, 7.296,7.728l 13.504,5.6c 2.384,1.168, 7.904,0.928, 10.192-0.48l 36.544-22.352 c 3.216-1.968, 7.056-3.008, 11.136-3.008c 5.52,0, 10.864,1.936, 15.008,5.632l 18.912,18.928c 6.112,6.864, 7.104,17.968, 2.32,25.808 l-22.352,36.544c-1.504,2.464-1.744,7.6-0.288,10.64l 5.568,13.488c 0.944,2.72, 4.752,6.192, 7.568,6.864l 41.664,10.032 c 8.832,2.128, 16.096,10.56, 16.928,19.616c0,0, 0.512,5.552, 0.512,13.872s-0.512,13.872-0.512,13.888c-0.816,9.040-8.096,17.472-16.928,19.616 l-41.648,10.016c-2.816,0.672-6.64,4.144-7.744,7.312l-5.6,13.504c-1.264,2.592-1.024,7.728, 0.48,10.192l 22.352,36.544 c 4.784,7.84, 3.792,18.944-2.64,26.144l-18.928,18.912c-6.608,5.872-18.256,6.928-25.808,2.32l-36.544-22.352 c-2.288-1.392-7.216-1.92-10.64-0.288l-13.488,5.568c-2.72,0.944-6.176,4.752-6.848,7.568l-10.048,41.664 c-2.128,8.832-10.56,16.096-19.616,16.928C 221.872,383.488, 216.32,384, 208,384s-13.872-0.512-13.888-0.512c-9.040-0.816-17.472-8.096-19.616-16.928 L 164.48,324.928c-0.672-2.816-4.144-6.64-7.312-7.744l-13.504-5.6c-2.4-1.168-7.904-0.912-10.192,0.48L 96.944,334.416 C 89.376,339.024, 77.984,338.224, 70.8,331.792l-18.912-18.928c-6.112-6.864-7.104-17.968-2.32-25.808l 22.352-36.544 c 1.504-2.464, 1.744-7.6, 0.288-10.64l-5.568-13.488c-0.944-2.72-4.752-6.192-7.568-6.864l-41.664-10.032 c-8.832-2.128-16.096-10.56-16.928-19.616C 0.512,189.872,0,184.32,0,176s 0.512-13.872, 0.512-13.888c 0.816-9.040, 8.096-17.472, 16.928-19.616 L 59.072,132.48z M 16,176c0,7.328, 0.432,12.272, 0.448,12.432c 0.192,2.16, 2.64,4.992, 4.736,5.504l 41.664,10.032 c 8.080,1.952, 16.224,9.344, 18.752,16.752l 5.184,12.592c 3.648,7.472, 3.136,18.448-1.2,25.552l-22.352,36.528 c-1.072,1.776-0.768,5.296, 0.288,6.496L 81.776,320.16c 1.456,1.296, 5.168,1.616, 6.832,0.608l 36.544-22.352 c 6.928-4.24, 18.8-4.528, 25.088-1.408l 12.608,5.216c 7.856,2.704, 15.248,10.848, 17.2,18.944l 10.016,41.648 c 0.512,2.112, 3.344,4.56, 5.504,4.752C 195.728,367.568, 200.672,368, 208,368s 12.272-0.432, 12.432-0.448c 2.16-0.192, 4.992-2.64, 5.504-4.736 l 10.032-41.648c 1.952-8.080, 9.328-16.24, 16.752-18.768l 12.592-5.184c 7.312-3.584, 18.64-3.024, 25.552,1.2l 36.528,22.352 c 1.664,1.008, 5.6,0.48, 6.496-0.288l 18.272-18.256c 1.376-1.552, 1.68-5.056, 0.608-6.832l-22.352-36.544 c-4.336-7.088-4.848-18.080-1.408-25.088l 5.216-12.608c 2.704-7.856, 10.848-15.248, 18.944-17.2l 41.648-10.016 c 2.112-0.512, 4.56-3.344, 4.752-5.504C 399.568,188.272, 400,183.328, 400,176s-0.432-12.272-0.448-12.432 c-0.192-2.16-2.64-4.992-4.736-5.504l-41.664-10.032c-8.080-1.952-16.224-9.344-18.752-16.752l-5.184-12.592 c-3.648-7.472-3.136-18.448, 1.2-25.552l 22.352-36.528c 1.072-1.776, 0.768-5.296-0.288-6.496l-18.256-18.272 c-0.864-0.768-2.432-1.264-4.016-1.264c-1.104,0-2.128,0.24-2.8,0.656l-36.544,22.352c-6.912,4.224-18.784,4.528-25.088,1.408 l-12.608-5.216c-7.856-2.704-15.248-10.864-17.184-18.944l-10.032-41.648c-0.512-2.112-3.344-4.56-5.504-4.752 C 220.272-15.568, 215.328-16, 208-16s-12.272,0.432-12.432,0.448c-2.16,0.192-4.992,2.64-5.504,4.736l-10.032,41.664 c-1.952,8.080-9.344,16.224-16.752,18.752l-12.592,5.184c-3.264,1.6-7.216,2.432-11.44,2.432c-5.264,0-10.272-1.296-14.112-3.648 l-36.528-22.352c-1.664-1.008-5.616-0.464-6.496,0.288L 63.84,49.776c-1.376,1.552-1.68,5.056-0.608,6.832l 22.352,36.544 c 4.336,7.088, 4.848,18.080, 1.408,25.088l-5.216,12.608c-2.704,7.856-10.848,15.248-18.944,17.2l-41.648,10.016 c-2.112,0.512-4.56,3.344-4.752,5.504C 16.432,163.728, 16,168.672, 16,176zM 208,88c 48.528,0, 88,39.472, 88,88s-39.472,88-88,88S 120,224.528, 120,176S 159.472,88, 208,88z M 208,248 c 39.696,0, 72-32.304, 72-72s-32.304-72-72-72S 136,136.304, 136,176S 168.304,248, 208,248zM 439.632,394.976c-0.64-0.976-2.96-2.208-4.144-2.208l-29.776,0.288c-7.232,0-14.48-5.136-16.848-11.936 c0,0-1.312-3.728-2.752-9.44c-1.44-5.712-2.048-9.616-2.048-9.616c-1.12-7.216, 2.896-15.2, 9.344-18.576l 26.256-13.76 c 1.008-0.528, 2.496-2.752, 2.656-4.368l 1.488-10.16c 0.24-1.12-0.528-3.68-1.344-4.48l-21.152-20.736 c-5.296-5.184-6.688-14.048-3.040-21.008l 9.584-16c 4.048-5.952, 12.816-8.992, 19.696-6.848l 29.184,8.928c 1.584,0, 3.168-0.608, 4.064-1.328 l 8.24-6.080c 0.96-0.64, 2.224-2.992, 2.208-4.144l-0.288-29.632c-0.064-7.296, 5.056-14.608, 11.936-17.008c0,0, 3.728-1.312, 9.44-2.752 c 5.712-1.44, 9.616-2.048, 9.616-2.048c 0.416-0.064, 2.080-0.192, 2.496-0.192c 6.528,0, 13.152,3.92, 16.080,9.536l 13.76,26.256 c 0.528,1.008, 2.752,2.496, 4.368,2.656l 10.608,1.536c 1.6,0, 3.488-0.832, 4.016-1.376l 20.736-21.152c 5.040-5.152, 13.536-6.992, 21.008-3.040 l 15.984,9.584c 6.112,4.16, 9.072,12.64, 6.864,19.696l-8.832,28.272c-0.336,1.088, 0.192,3.712, 1.248,4.976l 6.080,8.24 c 0.64,0.976, 2.96,2.208, 4.144,2.208l 29.776-0.288c 7.232,0, 14.48,5.136, 16.848,11.936c0,0, 1.312,3.728, 2.752,9.44 c 1.44,5.712, 2.048,9.616, 2.048,9.616c 1.12,7.216-2.896,15.2-9.344,18.576l-26.256,13.76c-1.008,0.528-2.496,2.752-2.656,4.368 L 632.208,356.8c-0.24,1.12, 0.528,3.68, 1.344,4.48l 21.152,20.736c 5.296,5.184, 6.688,14.048, 3.040,21.008L 648.16,419.024 c-4.048,5.936-12.8,9.008-19.696,6.864L 599.264,416.96c-1.584,0-3.168,0.608-4.064,1.328l-8.24,6.080 c-0.96,0.64-2.224,2.992-2.208,4.144l 0.288,29.632c 0.064,7.296-5.056,14.608-11.936,17.008c0,0-3.728,1.312-9.44,2.752 c-5.712,1.44-9.616,2.048-9.616,2.048C 553.632,480, 551.968,480.128, 551.552,480.128c-6.528,0-13.152-3.92-16.080-9.536l-13.76-26.256 c-0.528-1.008-2.752-2.496-4.368-2.656L 506.736,440.16c-1.6,0-3.488,0.832-4.016,1.376l-20.736,21.152 c-5.024,5.136-13.504,6.992-21.008,3.040L 444.976,456.16c-6.112-4.16-9.072-12.64-6.864-19.696l 8.832-28.272 c 0.336-1.088-0.192-3.712-1.248-4.976L 439.632,394.976z M 452.752,385.824L 458.24,393.28c 4.288,5.072, 5.952,13.344, 3.968,19.664l-8.816,28.256 c-0.080,0.448, 0.272,1.456, 0.192,1.472l 15.168,9.088l 1.808-0.272l 20.752-21.152c 3.68-3.744, 9.744-6.176, 15.44-6.176 c 1.312,0, 2.576,0.128, 3.264,0.304l 9.2,1.36c 6.592,0.576, 13.616,5.248, 16.688,11.104l 13.744,26.24c 0.256,0.4, 1.264,0.976, 1.92,0.976 c 0.176-0.016, 3.44-0.56, 8.208-1.744c 4.752-1.2, 7.888-2.272, 8.032-2.336c 0.496-0.208, 1.216-1.248, 1.248-1.76l-0.288-29.632 c-0.064-6.624, 3.92-14.064, 9.072-17.424L 585.28,405.76c 4.944-4.176, 13.424-5.936, 19.664-3.968l 28.384,8.832 c 0.672,0, 1.424-0.416, 1.328-0.208l 9.088-15.168c 0.176-0.416,0-1.472-0.272-1.808l-21.152-20.752c-4.72-4.656-7.168-12.72-5.872-18.704 l 1.344-9.2c 0.576-6.592, 5.248-13.616, 11.12-16.688l 26.24-13.744c 0.448-0.288, 1.008-1.408, 0.976-1.92 c-0.016-0.176-0.56-3.44-1.744-8.208c-1.2-4.752-2.272-7.888-2.336-8.032c-0.208-0.496-1.248-1.216-1.76-1.248l-29.792,0.288 c-6.576,0-13.936-3.984-17.264-9.072L 597.76,278.72c-4.288-5.072-5.952-13.344-3.968-19.664l 8.816-28.256 c 0.080-0.432-0.272-1.456-0.192-1.472l-15.168-9.088l-1.808,0.272l-20.752,21.152c-3.68,3.744-9.744,6.176-15.44,6.176 c-1.312,0-2.576-0.128-3.264-0.304l-9.2-1.36c-6.592-0.576-13.616-5.248-16.688-11.104l-13.744-26.24 c-0.256-0.4-1.264-0.976-1.92-0.976l0,0 c-0.176,0.016-3.44,0.56-8.208,1.744c-4.752,1.2-7.888,2.272-8.032,2.336 c-0.496,0.208-1.216,1.248-1.248,1.76l 0.288,29.632c 0.064,6.624-3.92,14.064-9.072,17.424L 470.72,266.24 c-3.552,3.008-8.784,4.8-14,4.8c-2.016,0-3.936-0.288-5.68-0.832l-28.384-8.832c-0.688,0-1.44,0.368-1.328,0.208l-9.088,15.168 c-0.176,0.416,0,1.472, 0.272,1.808l 21.152,20.752c 4.72,4.656, 7.168,12.72, 5.872,18.704L 438.192,327.2 c-0.576,6.592-5.248,13.616-11.12,16.688l-26.24,13.744c-0.448,0.288-1.008,1.408-0.976,1.92c 0.016,0.176, 0.56,3.44, 1.744,8.208 c 1.2,4.752, 2.272,7.888, 2.336,8.032c 0.208,0.496, 1.248,1.216, 1.76,1.248l 29.792-0.288C 442.064,376.752, 449.424,380.736, 452.752,385.824zM 528,288c 26.464,0, 48,21.536, 48,48s-21.536,48-48,48s-48-21.536-48-48S 501.536,288, 528,288z M 528,368c 17.648,0, 32-14.352, 32-32 s-14.352-32-32-32s-32,14.352-32,32S 510.352,368, 528,368z" horiz-adv-x="672" data-tags="gears"/><glyph unicode="" d="M 234.928,244.832c 1.872,0, 3.76,0.656, 5.28,1.984L 421.28,405.568L 410.72,417.6l-181.072-158.736 c-3.328-2.912-3.664-7.968-0.736-11.296C 230.496,245.76, 232.704,244.832, 234.928,244.832zM 163.008-32C 261.28-32, 320,45.28, 320,120c0,21.536-5.152,45.264-12.768,60.672l 72.352,36.176 C 382.288,218.208, 384,220.976, 384,224l0,64 l 48,0 c 0.176,0, 1.632,0.096, 1.808,0.096C 444.464,288.816, 447.648,292.208, 448,304L 448,368 l 48,0 c 2.064,0, 3.488-0.224, 4.448-0.368c 1.936-0.304, 5.552-0.864, 8.688,1.952c 3.232,2.88, 3.088,6.528, 2.96,9.744 C 512.064,380.48, 512,382, 512,384L 512,456.496 C 512,469.456, 501.456,480, 488.496,480l-62,0 c-5.664,0-11.168-2.064-15.504-5.824l-210.992-184.96 c-10.384,2.080-26.080,4.784-37.008,4.784C 73.12,294,0,220.88,0,131.008S 73.12-32, 163.008-32z M 163.008,278 c 8.016,0, 21.744-1.92, 37.664-5.248c 2.48-0.544, 5.024,0.16, 6.912,1.808L 421.52,462.112C 422.912,463.328, 424.688,464, 426.496,464l 62,0 C 492.64,464, 496,460.64, 496,456.496L 496,384 l-56,0 C 435.584,384, 432,380.416, 432,376L 432,304 l-56,0 c-4.416,0-8-3.584-8-8l0-67.056 l-75.584-37.792 c-2.096-1.040-3.632-2.976-4.192-5.248c-0.56-2.272-0.096-4.688, 1.28-6.592C 296.544,169.6, 304,145.488, 304,120 c0-66.848-52.736-136-140.992-136C 81.952-16, 16,49.952, 16,131.008S 81.952,278, 163.008,278zM 136,48c 30.88,0, 56,25.12, 56,56S 166.88,160, 136,160S 80,134.88, 80,104S 105.12,48, 136,48z M 136,144 c 22.048,0, 40-17.952, 40-40S 158.048,64, 136,64S 96,81.952, 96,104S 113.952,144, 136,144z" data-tags="key"/><glyph unicode="" d="M 89.392-29.872c 32.24,0, 66.928,16.416, 91.312,40.816l 270.128,274.704c 13.856,13.856, 21.568,32.224, 21.696,51.696 c 0.144,19.52-7.344,37.824-21.056,51.552c-28.288,28.272-74.576,28.016-103.392-0.768L 141.024,171.648c-3.248-3.408-3.136-8.832, 0.288-12.096 c 3.408-3.264, 8.8-3.136, 12.096,0.272L 360.32,376.176c 21.968,21.984, 57.456,22.256, 79.056,0.64c 10.448-10.448, 16.16-24.416, 16.048-39.328 c-0.096-14.96-6.032-29.056-16.736-39.776L 168.56,22.992c-28.416-28.4-86.816-54.16-121.84-19.104c-16.592,16.592-24.912,36.944-24.048,58.864 c 0.848,21.76, 11.088,43.52, 28.912,61.328L 360.32,437.424c 16.416,16.416, 42.064,25.92, 70.336,26.016c 0.176,0, 0.336,0, 0.512,0 c 28.032,0, 53.328-9.232, 69.472-25.376c 16.256-16.24, 25.504-41.744, 25.392-69.984c-0.112-28.272-9.616-53.904-26.144-70.432L 261.568,49.888 c-3.28-3.408-3.168-8.816, 0.24-12.096c 3.392-3.264, 8.816-3.168, 12.080,0.24l 238.208,247.648c 19.6,19.584, 30.912,49.6, 31.024,82.336 c 0.144,32.752-10.944,62.704-30.384,82.144c-19.328,19.328-49.024,30.4-81.568,30.4c-0.192,0-0.384,0-0.576,0 c-32.752-0.128-62.768-11.44-82.4-31.072L 39.44,136.128c-43.216-43.216-45.232-103.92-4.816-144.336C 49.776-23.344, 69.088-29.872, 89.392-29.872z" horiz-adv-x="544" data-tags="paperclip"/><glyph unicode="" d="M 303.776,216.464c 2.624-0.288, 5.232-0.416, 7.84-0.416c 19.456,0, 38.112,7.696, 52.128,21.712l 118.48,118.48 c 13.856,13.856, 21.584,32.224, 21.696,51.696c 0.144,19.52-7.344,37.824-21.056,51.552c-13.6,13.6-31.68,21.072-51.008,21.072 c-0.176,0-0.336,0-0.528,0c-19.472-0.128-37.824-7.84-51.68-21.696l-118.48-118.48c-17.52-17.52-25.104-42.384-20.304-66.512 c 0.928-4.64, 5.536-7.664, 10.064-6.704c 4.64,0.928, 7.648,5.424, 6.72,10.048c-3.696,18.512, 2.144,37.616, 15.616,51.072l 118.48,118.48 c 10.656,10.672, 24.768,16.592, 39.712,16.688c 15.6,0, 28.88-5.6, 39.328-16.048s 16.16-24.432, 16.064-39.328 c-0.112-14.96-6.032-29.056-16.704-39.712l-118.48-118.48c-12.224-12.208-29.008-18.128-46.064-16.384c-4.56,0.528-8.912-2.896-9.408-7.6 C 295.68,221.168, 299.088,216.96, 303.776,216.464zM 242.24,107.632c 18.368,18.368, 25.728,44.304, 19.664,69.344c-1.104,4.592-5.616,7.456-10.336,6.304 c-4.592-1.104-7.408-5.728-6.304-10.32c 4.656-19.216-1.008-39.104-15.136-53.248l-118.48-118.48c-10.656-10.672-24.768-16.592-39.712-16.688 c-15.344-0.080-28.88,5.584-39.328,16.048c-10.448,10.448-16.16,24.416-16.048,39.328c 0.096,14.96, 6.032,29.056, 16.688,39.728l 118.48,118.48 c 12.336,12.336, 29.152,18.304, 46.496,16.336c 4.608-0.352, 8.944,2.832, 9.472,7.536c 0.528,4.688-2.832,8.928-7.536,9.472 c-22.464,2.528-44.48-5.184-60.528-21.232l-118.48-118.48c-13.856-13.856-21.568-32.224-21.696-51.696c-0.144-19.52, 7.344-37.824, 21.056-51.552 c 13.6-13.6, 31.68-21.072, 51.008-21.072c 0.176,0, 0.336,0, 0.528,0c 19.472,0.128, 37.824,7.84, 51.68,21.696L 242.24,107.632zM 363.744,338.048c-3.344,3.344-8.752,3.344-12.096,0l-216-216c-3.344-3.328-3.344-8.752,0-12.096 c 1.664-1.664, 3.856-2.512, 6.048-2.512s 4.368,0.832, 6.048,2.512l 216,216C 367.088,329.296, 367.088,334.704, 363.744,338.048z" data-tags="attachment"/><glyph unicode="" d="M 648,480l-160,0 c-11.056,0-25.184-6.016-32.752-13.92l-21.28-21.44c-3.104-3.136-3.072-8.208, 0.064-11.312 c 3.104-3.104, 8.208-3.088, 11.312,0.048l 21.344,21.536C 471.248,459.664, 481.408,464, 488,464l 160,0 C 652.4,464, 656,460.416, 656,456l0-160.784 c0-6.576-4.336-16.736-9.184-21.392L 421.52,50.272c-3.216-3.056-8.56-2.976-11.68,0.128l-42.368,42.384 c-3.12,3.12-8.192,3.12-11.312,0s-3.12-8.192,0-11.312l 42.368-42.384c 4.704-4.688, 10.944-7.056, 17.184-7.056 c 6.112,0, 12.24,2.256, 16.992,6.784l 225.312,223.568C 665.984,270.032, 672,284.16, 672,295.216L 672,456 C 672,469.232, 661.232,480, 648,480zM 624.608,400c0,17.648-14.352,32-32,32s-32-14.352-32-32s 14.352-32, 32-32S 624.608,382.352, 624.608,400z M 576.608,400 c0,8.816, 7.168,16, 16,16s 16-7.184, 16-16s-7.168-16-16-16S 576.608,391.184, 576.608,400zM 263.392,416c-11.056,0-25.184-6.016-32.768-13.92L 6.736,175.984c-9.088-9.472-8.96-24.752, 0.336-34.048L 173.92-24.912 C 178.48-29.488, 184.592-32, 191.136-32c 6.336,0, 12.32,2.384, 16.944,6.816l 225.296,223.552c 7.984,7.648, 14.016,21.776, 14.016,32.848L 447.392,392 c0,13.232-10.768,24-24,24L 263.392,416 z M 432,392l0-160.784 c0-6.592-4.944-16.736-9.792-21.392L 196.912-13.728 c-3.12-2.96-8.64-2.896-11.664,0.128L 18.384,153.232c-3.12,3.136-3.184,8.48-0.208,11.568L 242.080,390.912 C 246.64,395.664, 256.8,400, 263.392,400l 160,0 C 427.792,400, 432,396.416, 432,392zM 368,368c-17.648,0-32-14.352-32-32s 14.352-32, 32-32s 32,14.352, 32,32S 385.648,368, 368,368z M 368,320c-8.832,0-16,7.184-16,16 s 7.168,16, 16,16s 16-7.184, 16-16S 376.832,320, 368,320z" horiz-adv-x="672" data-tags="pricetags"/><glyph unicode="" d="M 176,480C 91.36,480,0,412.704,0,304c0-53.648, 21.344-98.784, 62.336-132.992c 0.432-0.544, 0.928-1.008, 1.472-1.408 c 30.416-32.992, 31.952-39.264, 32.16-53.776c 0.096-5.744, 0.048-7.44,0-8.368l-0.064-3.344c-0.24-7.232-0.608-19.344, 14.384-23.92 l 129.504-28.496c 0.576-0.128, 1.152-0.192, 1.712-0.192c 3.68,0, 6.992,2.544, 7.808,6.288c 0.96,4.32-1.776,8.592-6.096,9.536l-128.88,28.336 c-2.48,0.752-2.688,0.816-2.464,7.968l 0.048,3.056c0,0, 0.16,1.248, 0.032,9.376c-0.304,20.304-4.72,30.112-36.944,64.944 c-0.624,0.768-1.376,1.408-2.208,1.888C 35.104,214.944, 16,255.68, 16,304C 16,402.832, 99.040,464, 176,464c 78.656,0, 160-59.856, 160-160 c0-63.648-30.848-98.736-56.288-120.816c-0.88-0.416-1.664-1.008-2.352-1.744c-32.592-35.264-37.008-45.072-37.312-65.376 c0-0.48-0.016-1.040,0-1.648l-0.016-0.56c-0.048-1.216-0.224-1.888-0.208-2.144C 239.28,111.792, 237.952,112, 237.952,112l-67.12,15.792 c-4.352,0.992-8.608-1.664-9.616-5.952c-1.008-4.304, 1.648-8.608, 5.952-9.632l 66.304-15.552c 0.88-0.32, 8.848-2.912, 15.568,1.808 c 2.928,2.064, 6.336,6.112, 6.944,13.856l 0.048,0.752c 0.016,0.512, 0.032,1.040, 0.032,1.584c0,0.144,0,0.288-0.016,0.416l 0.016,0.736 c 0.208,14.432, 1.712,20.704, 32.080,53.696c 0.144,0.112, 0.304,0.224, 0.432,0.352C 331.248,205.712, 352,249.6, 352,304C 352,414.16, 262.512,480, 176,480zM 240,8c 3.664,0, 6.96,2.512, 7.792,6.24c 0.992,4.304-1.712,8.592-6.032,9.568l-128,29.024 c-4.336,0.96-8.592-1.728-9.568-6.032c-0.992-4.304, 1.712-8.592, 6.032-9.568l 128-29.024C 238.832,8.064, 239.424,8, 240,8zM 121.744,7.136c-4.336,0.96-8.576-1.744-9.568-6.048c-0.96-4.32, 1.744-8.592, 6.064-9.552l 104-23.328 C 222.848-31.936, 223.424-32, 224-32c 3.664,0, 6.976,2.528, 7.808,6.256c 0.96,4.32-1.744,8.592-6.064,9.552L 121.744,7.136z" horiz-adv-x="352" data-tags="lightbulb"/><glyph unicode="" d="M 492.24,363.808L 307.552,468.048c-25.136,14.192-68.336,14.208-93.52,0L 29.344,363.808 C 15.216,355.824, 7.456,344.656, 7.456,332.336s 7.776-23.488, 21.888-31.456l 184.688-104.256c 12.576-7.104, 29.184-11.008, 46.752-11.008 c 17.584,0, 34.192,3.92, 46.768,11.008l 184.688,104.256c 14.128,7.968, 21.904,19.136, 21.904,31.456S 506.352,355.824, 492.24,363.808z M 483.824,315.76 l-184.688-104.256c-19.808-11.184-56.896-11.2-76.704,0L 37.744,315.76C 29.36,320.496, 24.56,326.544, 24.56,332.336c0,5.808, 4.8,11.84, 13.184,16.592 l 184.688,104.256c 9.904,5.6, 23.888,8.8, 38.336,8.8c 14.464,0, 28.448-3.216, 38.352-8.8l 184.688-104.256c 8.384-4.736, 13.2-10.784, 13.2-16.592 C 497.024,326.544, 492.224,320.496, 483.824,315.76zM 492.24,254.416c-4.096,2.32-9.312,0.88-11.664-3.248c-2.32-4.112-0.864-9.328, 3.248-11.648 c 8.384-4.736, 13.2-10.784, 13.2-16.576s-4.816-11.84-13.2-16.576l-184.688-104.256c-20.768-11.728-55.904-11.744-76.704,0L 37.744,206.368 c-8.384,4.736-13.184,10.784-13.184,16.576s 4.8,11.84, 13.184,16.576c 4.112,2.32, 5.568,7.536, 3.248,11.648 c-2.336,4.128-7.568,5.584-11.664,3.248c-14.128-7.968-21.888-19.152-21.888-31.472s 7.76-23.504, 21.888-31.472l 184.688-104.256 c 13.104-7.392, 29.936-11.104, 46.752-11.104c 16.832,0, 33.664,3.696, 46.768,11.104l 184.688,104.256c 14.128,7.968, 21.904,19.152, 21.904,31.472 S 506.352,246.448, 492.24,254.416zM 492.24,147.136c-4.096,2.32-9.312,0.88-11.664-3.248c-2.32-4.112-0.864-9.328, 3.248-11.648 c 8.384-4.736, 13.2-10.784, 13.2-16.576c0-5.792-4.816-11.84-13.2-16.592l-184.688-104.256c-20.768-11.728-55.904-11.744-76.704,0 L 37.744,99.088c-8.384,4.736-13.184,10.784-13.184,16.592c0,5.792, 4.8,11.84, 13.184,16.576c 4.112,2.32, 5.568,7.536, 3.248,11.648 c-2.336,4.112-7.568,5.584-11.664,3.248C 15.232,139.168, 7.456,128, 7.456,115.664s 7.76-23.504, 21.888-31.472l 184.688-104.256 c 13.104-7.392, 29.936-11.104, 46.752-11.104c 16.832,0, 33.664,3.696, 46.768,11.104l 184.688,104.256c 14.128,7.984, 21.904,19.152, 21.904,31.472 S 506.352,139.168, 492.24,147.136z" data-tags="layers"/><glyph unicode="" d="M0-23.664c0-4.416, 3.584-8, 8-8l 497.776,0 c 1.072,0, 2.112,0.208, 3.088,0.624 c 0.976,0.416, 1.856,1.008, 2.592,1.744c 0.016,0.016, 0.032,0.016, 0.048,0.032c 0.048,0.048, 0.048,0.144, 0.112,0.192 c 0.816,0.88, 1.344,1.952, 1.712,3.12c 0.112,0.368, 0.16,0.72, 0.224,1.104c 0.064,0.4, 0.24,0.752, 0.24,1.168 c0,0.64-0.224,1.2-0.368,1.792c-0.048,0.224, 0.048,0.448-0.032,0.672l-50.56,155.44c-0.384,1.2-1.056,2.304-1.952,3.184 L 187.008,411.296c-0.288,0.448-0.496,0.928-0.88,1.328L 126.304,472.448c-9.712,9.712-25.52,9.712-35.248,0L 7.296,388.688 C 2.592,383.984,0,377.728,0,371.072s 2.592-12.928, 7.296-17.632l 58.496-58.496c 0.288-0.432, 0.48-0.928, 0.864-1.312l 273.44-275.28 c 0.944-0.96, 2.096-1.648, 3.392-2.032l 107.408-32L 8-15.68 C 3.584-15.664,0-19.248,0-23.664z M 101.792,317.424l 250.992-247.776l-9.232-32.032 L 83.632,299.264L 101.792,317.424z M 365.056,80L 113.088,328.72l 38.992,38.992l 249.712-250.368L 401.792,80 L 365.056,80 z M 411.76,130L 163.392,379.024 l 16.624,16.624l 259.376-259.376L 411.76,130z M 367.808,64l 41.984,0 c 4.416,0, 8,3.584, 8,8l0,42.96 l 32.112,7.296l 43.568-133.92L 357.664,28.8 L 367.808,64z M 16,371.072C 16,373.456, 16.928,375.68, 18.608,377.376l 83.76,83.76c 3.472,3.472, 9.12,3.488, 12.624,0l 53.952-53.952l-96.368-96.368 L 18.624,364.768C 16.928,366.448, 16,368.688, 16,371.072z" data-tags="pencil"/><glyph unicode="" d="M 3.376,389.664c-13.552-13.568-10.656-32.672, 0.128-43.44c 0.432-0.416, 43.744-41.792, 104.656-102.704 c 1.568-1.568, 3.616-2.336, 5.664-2.336s 4.096,0.784, 5.664,2.336c 3.12,3.12, 3.12,8.192,0,11.312 c-9.184,9.184-17.92,17.872-26.208,26.096l 25.424,25.424c 3.12,3.12, 3.12,8.192,0,11.312s-8.192,3.12-11.312,0l-25.488-25.488 c-14.256,14.080-26.816,26.368-37.040,36.336l 57.84,57.84c 3.12,3.12, 3.12,8.192,0,11.312s-8.192,3.12-11.312,0L 33.376,339.648 c-11.776,11.408-18.56,17.888-18.672,18c-3.376,3.376-7.808,12.88,0,20.688l 80,80C 97.792,461.472, 106.016,467.696, 115.040,458.72 c 0.4-0.448, 40.8-46.336, 102.464-108c 3.12-3.12, 8.192-3.12, 11.312,0s 3.12,8.192,0,11.312C 167.536,423.296, 127.44,468.832, 126.704,469.664 c-14.912,14.88-32.896,10.416-43.312,0L 3.376,389.664zM 342.704,93.664c-3.12,3.12-8.192,3.12-11.312,0l-25.456-25.44c-7.76,7.856-15.904,16.080-24.48,24.656 c-3.12,3.12-8.192,3.12-11.312,0s-3.12-8.192,0-11.312c 59.264-59.248, 100.656-103.504, 101.248-104.144c 5.488-5.504, 13.008-8.528, 21.168-8.528 l0,0 c 8.4,0, 16.896,3.28, 22.16,8.56l 79.968,80.912c 10.064,10.064, 10.64,27.136, 1.248,36.56l-107.296,107.28 c-3.12,3.12-8.192,3.12-11.312,0s-3.12-8.192,0-11.312l 107.296-107.28c 3.2-3.2, 2.592-10.112-1.264-13.968l-79.984-80.912 c-1.84-1.856-6.016-3.84-10.816-3.84c0,0,0,0,0,0c-2.752,0-6.688,0.672-9.664,3.664c-0.16,0.176-6.864,7.328-18.496,19.504 l 58.304,58.304c 3.12,3.12, 3.12,8.192,0,11.312s-8.192,3.12-11.312,0l-58.064-58.064c-9.984,10.384-22.224,23.008-36.16,37.216l 25.536,25.536 C 345.824,85.472, 345.824,90.528, 342.704,93.664zM -4.688-29.264c 1.536-1.568, 3.6-2.4, 5.728-2.4c 0.768,0, 1.536,0.112, 2.288,0.336l 160,47.664 c 1.296,0.384, 2.448,1.072, 3.392,2.032l 273.44,275.28c 0.384,0.384, 0.576,0.88, 0.864,1.312l 58.496,58.496 c 4.704,4.72, 7.312,10.976, 7.312,17.648c0,6.656-2.608,12.912-7.312,17.6L 415.76,472.448c-9.408,9.408-25.84,9.408-35.248,0l-59.824-59.824 c-0.384-0.384-0.592-0.88-0.88-1.328L 45.952,137.424c-0.896-0.896-1.568-1.984-1.952-3.184l-50.56-155.44 C-7.488-24.032, -6.768-27.12, -4.688-29.264z M 326.8,395.664l 16.624-16.624L 95.056,130l-27.632,6.272L 326.8,395.664z M 105.040,117.344 L 354.752,367.712l 38.976-38.976L 141.76,80L 105.040,80 L 105.040,117.344 z M 423.184,299.264L 163.28,37.6l-9.232,32.032L 405.040,317.424L 423.184,299.264z M 56.928,122.256 L 89.040,114.96L 89.040,72 C 89.040,67.584, 92.624,64, 97.040,64l 41.984,0 l 10.144-35.2L 13.36-11.664L 56.928,122.256z M 391.84,461.136 c 3.376,3.376, 9.248,3.376, 12.624,0l 83.76-83.76c 1.68-1.68, 2.608-3.92, 2.608-6.304c0-2.368-0.928-4.624-2.624-6.32l-53.936-53.952 l-96.368,96.368L 391.84,461.136z" horiz-adv-x="496" data-tags="tools"/><glyph unicode="" d="M 453.664,458.336c 1.84,1.84, 2.672,4.464, 2.224,7.024c-0.448,2.56-2.112,4.752-4.48,5.856 c-36.656,17.28-80.16,9.696-108.768-19.056c-27.168-27.344-36.656-70.288-23.984-106.192L 134.032,161.344C 124,164.928, 113.28,166.72, 102.096,166.72 c-27.424,0-54.016-10.912-72.944-29.952c-28.512-28.672-36.544-71.040-20.496-107.952c 1.056-2.432, 3.248-4.192, 5.856-4.672 c 2.624-0.496, 5.296,0.336, 7.152,2.224l 55.856,56.144c 3.68,3.712, 9.616,4.208, 12.688,1.088l 24.112-25.232 c 3.504-3.536, 3.344-8.992-0.352-12.72l-55.648-56c-1.84-1.84-2.656-4.464-2.208-7.024c 0.448-2.56, 2.112-4.736, 4.464-5.84 c 13.264-6.256, 27.216-9.408, 41.456-9.408c 25.152,0, 49.040,10.112, 67.312,28.48c 27.168,27.328, 36.656,70.272, 23.968,106.176l 184.624,184.64 c 10.048-3.584, 20.768-5.376, 31.952-5.376c 27.424,0, 54.016,10.912, 72.944,29.952c 28.512,28.672, 36.544,71.040, 20.496,107.952 c-1.056,2.432-3.248,4.192-5.856,4.672c-2.576,0.448-5.28-0.336-7.152-2.224l-55.856-56.144c-3.44-3.456-9.28-3.424-12.816,0.16 l-23.984,23.984c-3.616,3.632-3.6,9.088-0.016,12.704L 453.664,458.336z M 386.336,378.336l 23.984-23.984c 9.584-9.632, 26-9.68, 35.488-0.144 l 46.88,47.104c 7.504-27.856-0.256-57.744-21.184-78.816c-15.952-16.048-38.384-25.232-61.6-25.232c-10.928,0-21.28,2.048-30.768,6.080 c-3.008,1.296-6.48,0.592-8.784-1.696l-192-192c-2.304-2.304-2.976-5.76-1.712-8.752c 12.848-30.56, 5.024-70-18.608-93.776 c-21.136-21.248-51.904-28.816-79.76-20.128l 47.056,47.36c 9.936,10, 10.096,25.504, 0.464,35.168l-24.096,25.232 c-9.296,9.36-25.824,8.784-35.488-0.992l-46.88-47.104c-7.504,27.856, 0.256,57.744, 21.184,78.816c 15.952,16.048, 38.384,25.232, 61.6,25.232 c 10.928,0, 21.28-2.048, 30.768-6.080c 2.992-1.312, 6.48-0.592, 8.784,1.696l 192,192c 2.304,2.304, 2.976,5.76, 1.712,8.752 c-12.848,30.56-5.024,70.016, 18.608,93.792c 21.12,21.248, 51.872,28.768, 79.712,20.128l-47.36-47.376C 376.48,403.744, 376.48,388.256, 386.336,378.336zM 467.36-10.352c-3.536-3.552-9.664-3.552-13.232,0.032l-160.48,160c-3.12,3.088-8.192,3.104-11.312-0.032 c-3.12-3.12-3.104-8.192, 0.016-11.312l 160.464-159.968c 4.8-4.816, 11.168-7.472, 17.952-7.472c0,0,0,0,0,0 c 6.784,0, 13.152,2.656, 18.048,7.584l 22.864,23.888c 9.84,9.888, 9.84,25.392-0.016,35.296l-160,160c-3.12,3.12-8.192,3.12-11.312,0 s-3.12-8.192,0-11.312l 159.984-159.984c 3.664-3.68, 3.664-9.024-0.112-12.832L 467.36-10.352zM 93.664,429.664l-48,48c-3.12,3.12-8.192,3.12-11.312,0l-32-32c-3.12-3.12-3.12-8.192,0-11.312l 48-48 C 51.904,384.784, 53.952,384, 56,384s 4.096,0.784, 5.664,2.336L 72,396.688l 122.336-122.336C 195.904,272.784, 197.952,272, 200,272 s 4.096,0.784, 5.664,2.336c 3.12,3.12, 3.12,8.192,0,11.312L 83.312,408l 10.336,10.336C 96.784,421.472, 96.784,426.528, 93.664,429.664z M 56,403.312 L 19.312,440L 40,460.688L 76.688,424L 56,403.312z" data-tags="tools-2"/><glyph unicode="" d="M 408,16c 30.88,0, 56,25.12, 56,56S 438.88,128, 408,128S 352,102.88, 352,72S 377.12,16, 408,16z M 408,112 c 22.048,0, 40-17.936, 40-40S 430.048,32, 408,32S 368,49.936, 368,72S 385.952,112, 408,112zM 299.712,96.8c0-23.216, 5.712-52.336, 13.376-68.816C 328.768-11.808, 359.616-32, 404.8-32c 59.104,0, 107.2,48.096, 107.2,107.2 c0,57.488-45.088,99.2-107.2,99.2c-70.608,0-93.648,37.936-94.56,39.504c-0.32,0.544-0.688,1.056-1.12,1.52L 63.44,477.472 c-2.24,2.384-5.728,3.152-8.784,1.968C 51.616,478.24, 49.6,475.28, 49.6,472c0-154.416, 102.976-235.44, 178.16-294.576 C 267.968,145.792, 299.712,120.832, 299.712,96.8z M 66.304,451.024l 230.592-245.952C 301.184,198.288, 329.6,158.4, 404.8,158.4 c 52.848,0, 91.2-34.992, 91.2-83.2c0-50.304-40.912-91.2-91.2-91.2c-38.48,0-63.616,16.32-77.008,50.304c-5.856,12.576-12.080,38.768-12.080,62.496 c0,31.792-34.448,58.896-78.048,93.2C 168.592,244.336, 75.232,317.76, 66.304,451.024zM 48,72C 48,41.12, 73.12,16, 104,16s 56,25.12, 56,56S 134.88,128, 104,128S 48,102.88, 48,72z M 144,72 C 144,49.936, 126.048,32, 104,32S 64,49.936, 64,72S 81.952,112, 104,112S 144,94.064, 144,72zM 330.144,232.464c-3.264-2.976-3.504-8.032-0.528-11.296c 1.584-1.728, 3.744-2.608, 5.92-2.608 c 1.92,0, 3.856,0.688, 5.392,2.096C 397.488,272.176, 462.4,347.296, 462.4,472c0,3.28-2,6.24-5.056,7.44 c-3.040,1.168-6.528,0.416-8.784-1.968l-174.72-186.336c-3.024-3.216-2.864-8.288, 0.368-11.296c 3.216-3.008, 8.272-2.88, 11.312,0.352 l 160.224,170.88C 438.928,344.992, 381.008,278.816, 330.144,232.464zM 174.576,177.664c 4.112,1.6, 6.16,6.224, 4.576,10.336s-6.24,6.192-10.352,4.56 c-3.376-1.312-7.024-2.928-10.944-4.672C 144.352,181.888, 127.536,174.4, 107.2,174.4c-62.112,0-107.2-41.712-107.2-99.2C0,16.096, 48.096-32, 107.2-32 c 45.184,0, 76.032,20.192, 91.504,59.552C 206.8,44.912, 208,82.912, 208,104c0,4.304, 12.192,13.488, 19.488,18.976 c 6.736,5.056, 13.696,10.304, 18.496,15.712c 2.928,3.312, 2.624,8.368-0.672,11.296c-3.296,2.944-8.368,2.624-11.296-0.672 c-3.744-4.24-10.048-8.976-16.16-13.568C 204.56,125.728, 192,116.288, 192,104c0-33.152-2.912-59.216-7.984-70.144 C 170.816,0.32, 145.68-16, 107.2-16C 56.912-16, 16,24.912, 16,75.2c0,48.224, 38.352,83.2, 91.2,83.2c 23.744,0, 43.056,8.608, 57.168,14.896 C 168.016,174.928, 171.424,176.432, 174.576,177.664zM 243.104,208.256A12.896,12.896 180 1 1 268.896,208.25599999999997A12.896,12.896 180 1 1 243.104,208.25599999999997z" data-tags="scissors"/><glyph unicode="" d="M 246.448,144l 73.28,0 c 16.848,0, 30.544,13.696, 32.272,30.544L 352,449.456 C 350.272,466.304, 336.576,480, 319.728,480L 32.272,480 C 15.424,480, 1.728,466.304,0,449.456l0-274.912 C 1.728,157.696, 15.424,144, 32.272,144l 79.392,0 c 5.568,0, 33.328-1.184, 33.328-24.672 c0-41.952-8.848-61.472-12.192-68.832l-0.784-1.744l 6.448-2.784l0-0.208 l-7.152,1.44c-0.272-0.528-0.48-1.088-0.608-1.664 c-2.464-6.576-3.712-13.328-3.712-20.112C 127.008-8.928, 146.688-32, 176-32c 29.616,0, 49.504,23.072, 49.504,57.424 c0,6.256-1.056,12.48-3.168,18.576c-0.080,1.824-0.784,3.52-1.904,4.832c-0.416,0.96-0.96,2-1.616,3.232 C 215.312,58.704, 208,72.496, 208,119.328C 208,129.248, 218.24,144, 246.448,144z M 16,287.056l 320,0 L 336,224 L 16,224 L 16,287.056 z M 32.272,464l 287.456,0 C 327.744,464, 334.272,457.472, 336,449.456l0-146.384 L 16,303.072 L 16,449.456 C 17.728,457.472, 24.256,464, 32.272,464z M 204.672,44.576c 0.448-0.848, 0.832-1.552, 1.488-3.024 c0-0.016, 0.048-0.112, 0.112-0.256c 0.064-0.208, 0.128-0.4, 0.208-0.608c 2-5.008, 3.008-10.16, 3.008-15.264 C 209.504,5.392, 200.704-16, 176-16c-24.336,0-32.992,21.392-32.992,41.424c0,5.104, 1.008,10.256, 3.008,15.264 c 0.064,0.192, 0.144,0.368, 0.192,0.56c 0.224,0.48, 0.496,1.088, 0.528,1.152l 0.672,1.488c 3.712,8.224, 13.616,30.016, 13.616,75.44 C 160.992,151.44, 130,160, 111.2,160c0,0,0,0-0.016,0L 32.272,160 C 24.256,160, 17.728,166.528, 16,174.544L 16,208 l 320,0 l0-33.456 C 334.272,166.528, 327.744,160, 319.728,160l-73.28,0 C 206.496,160, 192,135.664, 192,119.328C 192,68.528, 200.56,52.336, 204.672,44.576z" horiz-adv-x="352" data-tags="paintbrush"/><glyph unicode="" d="M 168,480C 75.36,480,0,404.64,0,312S 75.36,144, 168,144c 43.6,0, 83.248,16.832, 113.136,44.16 c 0.352-0.624, 0.672-1.28, 1.216-1.824l 34.416-34.416c-2.88-4.864-4.512-10.368-4.512-16.176c0-8.544, 3.328-16.576, 9.376-22.624 l 135.76-135.76C 463.424-28.672, 471.456-32, 480-32s 16.576,3.328, 22.624,9.376S 512-8.544, 512,0s-3.328,16.576-9.376,22.624l-135.76,135.76 c-10.144,10.144-26.544,11.664-38.72,4.784l-34.48,34.48c-0.544,0.544-1.184,0.864-1.824,1.216C 319.168,228.752, 336,268.4, 336,312 C 336,404.64, 260.64,480, 168,480z M 355.552,147.072l 135.76-135.76C 494.336,8.288, 496,4.272, 496,0s-1.664-8.288-4.688-11.312 c-6.064-6.032-16.56-6.032-22.624,0l-135.76,135.76c-3.008,3.024-4.688,7.040-4.688,11.312s 1.664,8.288, 4.688,11.312 c 3.024,3.008, 7.040,4.688, 11.312,4.688S 352.512,150.096, 355.552,147.072z M 168,160C 84.192,160, 16,228.192, 16,312S 84.192,464, 168,464 S 320,395.808, 320,312S 251.808,160, 168,160zM 168,432C 101.824,432, 48,378.176, 48,312S 101.824,192, 168,192s 120,53.824, 120,120S 234.176,432, 168,432z M 168,208 C 110.656,208, 64,254.656, 64,312S 110.656,416, 168,416S 272,369.344, 272,312S 225.344,208, 168,208z" data-tags="magnifying-glass"/><glyph unicode="" d="M 184.224,384c 4.416,0, 8,3.584, 8,8L 192.224,416 L 200,416 C 204.416,416, 208,419.584, 208,424l0,48 C 208,476.416, 204.416,480, 200,480l-32,0 C 163.584,480, 160,476.416, 160,472l0-48 C 160,419.584, 163.584,416, 168,416l 8.224,0 l0-24 C 176.224,387.584, 179.792,384, 184.224,384z M 176,464l 16,0 l0-32 l-16,0 L 176,464 zM 4.288-29.072c 1.184-0.624, 2.448-0.928, 3.712-0.928c 2.88,0, 5.664,1.568, 7.072,4.288l 68.672,130.768 c 30.8-15.472, 64.944-23.84, 100.464-23.84c 35.424,0, 69.504,8.336, 100.24,23.728l 68.448-130.656c 1.44-2.72, 4.224-4.288, 7.088-4.288 c 1.248,0, 2.528,0.304, 3.712,0.912c 3.904,2.064, 5.424,6.896, 3.376,10.816l-68.608,130.96c 15.856,9.44, 30.752,20.672, 44.128,34.048 c 15.6,15.6, 15.6,40.976,0,56.56c-15.12,15.12-41.504,15.088-56.56,0c-7.568-7.568-15.904-14.080-24.72-19.68l-37.728,72.016 c 14.608,11.664, 24.176,29.392, 24.176,49.488c0,35.040-28.512,63.568-63.568,63.568S 120.672,340.16, 120.672,305.104c0-20.080, 9.536-37.792, 24.112-49.456 L 106.976,183.68c-8.768,5.6-17.056,12.080-24.576,19.6c-15.12,15.12-41.504,15.088-56.56,0c-15.6-15.6-15.6-40.976,0-56.56 c 13.312-13.312, 28.144-24.512, 43.92-33.92l-68.832-131.072C-1.136-22.192, 0.368-27.024, 4.288-29.072z M 54.112,199.008 c 6.416,0, 12.448-2.496, 16.992-7.024c 30.176-30.176, 70.336-46.784, 113.12-46.784s 82.976,16.608, 113.152,46.784c 9.056,9.072, 24.88,9.040, 33.936,0 c 9.36-9.36, 9.36-24.576,0-33.936c-39.232-39.216-91.488-60.832-147.088-60.832c-55.632,0-107.84,21.616-147.056,60.832 c-9.36,9.36-9.36,24.576,0,33.936C 41.68,196.496, 47.696,199.008, 54.112,199.008z M 136.672,305.104c0,26.224, 21.328,47.568, 47.552,47.568 s 47.568-21.344, 47.568-47.568s-21.344-47.568-47.568-47.568S 136.672,278.896, 136.672,305.104z M 158.384,247.152c 7.904-3.536, 16.624-5.616, 25.84-5.616 c 9.184,0, 17.872,2.048, 25.76,5.568l 37.36-71.312c-19.424-9.472-40.848-14.624-63.12-14.624c-22.336,0-43.808,5.168-63.264,14.688L 158.384,247.152 z" horiz-adv-x="368" data-tags="circle-compass"/><glyph unicode="" d="M 624,480c-26.464,0-48-21.536-48-48c0-14.208, 6.336-26.864, 16.176-35.664L 451.376,171.84C 445.44,174.48, 438.896,176, 432,176 c-13.888,0-26.304-6.016-35.088-15.472l-145.168,91.92C 254.432,258.432, 256,265.024, 256,272c0,26.464-21.536,48-48,48s-48-21.536-48-48 c0-14.464, 6.56-27.296, 16.704-36.096L 66.384,60.304C 60.72,62.672, 54.512,64, 48,64c-26.464,0-48-21.536-48-48s 21.536-48, 48-48s 48,21.536, 48,48 c0,14.208-6.32,26.848-16.16,35.648l 110.464,175.84C 195.792,225.28, 201.744,224, 208,224c 13.744,0, 26.064,5.872, 34.816,15.152l 145.248-91.968 C 385.488,141.296, 384,134.832, 384,128c0-26.464, 21.536-48, 48-48s 48,21.536, 48,48c0,13.808-5.936,26.176-15.312,34.944l 140.96,224.736 C 611.312,385.328, 617.504,384, 624,384c 26.464,0, 48,21.536, 48,48S 650.464,480, 624,480z M 80,16c0-17.648-14.352-32-32-32s-32,14.352-32,32s 14.352,32, 32,32 S 80,33.648, 80,16z M 208,240c-17.648,0-32,14.352-32,32s 14.352,32, 32,32s 32-14.352, 32-32S 225.648,240, 208,240z M 432,96c-17.648,0-32,14.352-32,32s 14.352,32, 32,32 s 32-14.352, 32-32S 449.648,96, 432,96z M 624,400c-17.648,0-32,14.352-32,32s 14.352,32, 32,32s 32-14.352, 32-32S 641.648,400, 624,400z" horiz-adv-x="672" data-tags="linegraph"/><glyph unicode="" d="M 112,95.888L 112,32 L 64.544,32 c-18.256,0-32-13.744-32-32l0-24 c0-4.416, 3.584-8, 8-8l 160,0 c 4.416,0, 8,3.584, 8,8 l0,22.8 c0,18.624-14.064,33.2-32,33.2L 128,32 l0,63.888 c 63.568,4.448, 113.088,56.96, 113.088,121.024l0,30.192 c0,4.72-3.824,8.544-8.544,8.544 S 224,251.808, 224,247.088l0-30.192 c0-57.552-46.4-104.352-103.456-104.352s-103.456,46.816-103.456,104.352l0,30.192 c0,4.72-3.824,8.544-8.544,8.544 S0,251.808,0,247.088l0-30.192 C0,152.848, 49.52,100.336, 112,95.888z M 192.544-1.2L 192.544-16 l-144,0 l0,16 c0,9.424, 6.576,16, 16,16l 112,0 C 185.664,16, 192.544,8.608, 192.544-1.2zM 120.544,480.544C 80.544,480.544, 48,447.6, 48,407.088l0-190.192 c0-40.496, 32.544-73.456, 72.544-73.456s 72.544,32.96, 71.456,73.456 L 192,407.088 C 193.088,447.6, 160.544,480.544, 120.544,480.544z M 176,216.912c0-31.072-24.88-56.352-55.456-56.352S 64,185.824, 64,216.912L 64,407.088 c0,31.072, 25.968,56.352, 56.544,56.352S 176,438.176, 176,407.088L 176,216.912 z" horiz-adv-x="240" data-tags="mic"/></font>
</defs>
</svg>
